<svg width="16" height="16" viewBox="0 0 16 16" fill="none" xmlns="http://www.w3.org/2000/svg">
<g clip-path="url(#clip0_342_16)">
<path d="M6.13609 3.25715C6.06266 3.4909 5.84703 3.64059 5.61422 3.64059C5.55984 3.64059 5.50484 3.63246 5.45047 3.61527L5.03266 3.48434C3.45734 4.47309 2.41016 6.22559 2.41016 8.22246C2.41016 11.3103 4.91328 13.8134 8.00109 13.8134C11.0889 13.8134 13.592 11.3103 13.592 8.22246C13.592 5.13465 11.0886 2.63184 8.00078 2.63184C7.34891 2.63184 6.72328 2.74371 6.14141 2.94902C6.16828 3.04652 6.16891 3.15309 6.13609 3.25715ZM6.68359 5.0134C6.68359 4.71121 6.92859 4.46621 7.23078 4.46621C7.53297 4.46621 7.77797 4.71121 7.77797 5.0134V7.9909C7.77797 8.23652 7.97766 8.43621 8.22328 8.43621H10.2083C10.5105 8.43621 10.7555 8.68121 10.7555 8.9834C10.7555 9.28559 10.5105 9.53059 10.2083 9.53059H8.22328C7.37422 9.53059 6.68359 8.83996 6.68359 7.9909V5.0134Z" fill="white"/>
<path d="M13.5002 2.72237C12.0311 1.25362 10.078 0.444553 8.00047 0.444553C6.86672 0.444553 5.75734 0.689553 4.74141 1.15862L4.90266 0.746428C5.01266 0.464866 4.87359 0.147678 4.59234 0.0376781C4.31109 -0.0723219 3.99359 0.0667406 3.88359 0.347991L3.20891 2.07393C3.13359 2.26643 3.14172 2.48362 3.23109 2.67018C3.32047 2.85643 3.48484 2.99893 3.68203 3.0608L5.03234 3.48424C5.37828 3.26705 5.74984 3.08674 6.14109 2.94862C6.09328 2.77518 5.96172 2.62893 5.77766 2.57112L4.90484 2.29737C5.85578 1.79955 6.91484 1.53893 8.00047 1.53893C9.78578 1.53893 11.4639 2.23424 12.7264 3.49643C13.9889 4.75893 14.6839 6.43705 14.6839 8.22237C14.6839 10.0077 13.9886 11.6861 12.7264 12.9483C11.4639 14.2105 9.78578 14.9058 8.00047 14.9058C6.21516 14.9058 4.53672 14.2105 3.27453 12.9483C2.01203 11.6858 1.31703 10.0077 1.31703 8.22237C1.31703 7.16049 1.55859 6.14549 2.03484 5.20549C2.17141 4.93612 2.06359 4.60674 1.79422 4.47018C1.52484 4.33362 1.19547 4.44143 1.05891 4.7108C0.503906 5.80549 0.222656 6.98674 0.222656 8.22205C0.222656 10.2996 1.03172 12.2527 2.50078 13.7217C3.96984 15.1908 5.92297 15.9999 8.00047 15.9999C10.078 15.9999 12.0311 15.1908 13.5002 13.7217C14.9692 12.2527 15.7783 10.2996 15.7783 8.22205C15.7783 6.14455 14.9692 4.19143 13.5002 2.72237Z" fill="white"/>
</g>
<defs>
<clipPath id="clip0_342_16">
<rect width="16" height="16" fill="white"/>
</clipPath>
</defs>
</svg>
