<svg width="4" height="15" viewBox="0 0 4 15" fill="none" xmlns="http://www.w3.org/2000/svg">
<path fill-rule="evenodd" clip-rule="evenodd" d="M3.37807 0.549173C4.1103 1.2814 4.1103 2.46859 3.37807 3.20082C2.64584 3.93305 1.45865 3.93305 0.726419 3.20082C-0.00581148 2.46859 -0.00581148 1.2814 0.726419 0.549173C1.45862 -0.183058 2.64581 -0.183058 3.37807 0.549173ZM3.37807 6.17419C4.1103 6.90642 4.1103 8.0936 3.37807 8.82584C2.64584 9.55807 1.45865 9.55807 0.726419 8.82584C-0.00581148 8.0936 -0.00581148 6.90642 0.726419 6.17419C1.45862 5.44196 2.64581 5.44196 3.37807 6.17419ZM3.37807 14.4508C4.1103 13.7186 4.1103 12.5314 3.37807 11.7992C2.64581 11.0669 1.45862 11.0669 0.726419 11.7992C-0.00581148 12.5314 -0.00581148 13.7186 0.726419 14.4508C1.45865 15.1831 2.64584 15.1831 3.37807 14.4508Z" fill="#807D7D"/>
</svg>
