<svg width="40" height="40" viewBox="0 0 40 40" fill="none" xmlns="http://www.w3.org/2000/svg">
<path d="M30.0781 39.3594C35.5469 39.3594 40 34.9062 40 29.4375C40 23.9766 35.5625 19.5312 30.1094 19.5156C28.5156 18.4062 26.5 17.5547 24.1953 16.9922C25.8438 15.2578 26.8594 12.9062 26.8594 10.3281C26.8594 4.98437 22.5156 0.640625 17.1719 0.640625C11.8281 0.640625 7.48438 4.98437 7.48438 10.3281C7.48438 12.9062 8.5 15.25 10.1484 16.9922C7.60937 17.6016 5.42969 18.5781 3.76562 19.8516C1.29688 21.7422 0 24.2578 0 27.1484V34.375C0 37.125 2.54688 39.3594 5.67969 39.3594M37.9688 29.4375C37.9688 33.7891 34.4297 37.3281 30.0781 37.3281C25.7266 37.3281 22.1875 33.7891 22.1875 29.4375C22.1875 25.0859 25.7266 21.5469 30.0781 21.5469C34.4297 21.5469 37.9688 25.0859 37.9688 29.4375ZM17.1641 2.67187C21.3906 2.67187 24.8203 6.10937 24.8203 10.3281C24.8203 14.5469 21.3828 17.9844 17.1641 17.9844C12.9453 17.9844 9.50781 14.5469 9.50781 10.3281C9.50781 6.10937 12.9453 2.67187 17.1641 2.67187ZM2.03125 27.1484C2.03125 24.8828 3.03125 22.9766 4.99219 21.4687C6.75781 20.1172 9.24219 19.1406 12.1953 18.6484C13.6484 19.5234 15.3516 20.0234 17.1641 20.0234C18.9766 20.0234 20.6797 19.5234 22.1328 18.6484C23.9062 18.9453 25.5156 19.4141 26.8984 20.0391C22.9844 21.3672 20.1641 25.0781 20.1641 29.4375C20.1641 32.6484 21.7031 35.5078 24.0781 37.3281H5.67969C3.66406 37.3281 2.03125 36 2.03125 34.375V27.1484ZM28.8281 30.4141L33.4609 25.7812C33.8594 25.3828 34.5 25.3828 34.8984 25.7812C35.2969 26.1797 35.2969 26.8203 34.8984 27.2187L29.5469 32.5703C29.3594 32.7578 29.1016 32.8672 28.8281 32.8672C28.5625 32.8672 28.2969 32.7578 28.1094 32.5703L25.2656 29.7266C24.8672 29.3281 24.8672 28.6875 25.2656 28.2891C25.6641 27.8906 26.3047 27.8906 26.7031 28.2891L28.8281 30.4141Z" fill="#9CAFFC"/>
</svg>
