<svg width="13" height="13" viewBox="0 0 13 13" fill="none" xmlns="http://www.w3.org/2000/svg">
<path fill-rule="evenodd" clip-rule="evenodd" d="M5.87158 9.29195V7.12918H3.70805C2.88184 7.12918 2.88184 5.87184 3.70805 5.87184H5.87158V3.7083C5.87158 2.88209 7.12893 2.88209 7.12893 3.7083V5.87184H9.2917C10.1179 5.87184 10.1179 7.12918 9.2917 7.12918H7.12893V9.29195C7.12893 10.1182 5.87158 10.1182 5.87158 9.29195ZM6.5 13C10.09 13 13 10.0902 13 6.5C13 2.91002 10.09 0 6.5 0C2.91002 0 0 2.91002 0 6.5C0 10.09 2.91002 13 6.5 13Z" fill="white"/>
</svg>
