<svg width="20" height="15" viewBox="0 0 20 15" fill="none" xmlns="http://www.w3.org/2000/svg">
<path d="M19.0911 6.37487H3.10372L7.91558 1.563C8.00241 1.47914 8.07167 1.37883 8.11931 1.26792C8.16696 1.157 8.19204 1.03771 8.19308 0.917C8.19413 0.79629 8.17113 0.67658 8.12542 0.564855C8.07971 0.45313 8.01221 0.351627 7.92685 0.266269C7.84149 0.180911 7.73999 0.113408 7.62826 0.0676973C7.51654 0.021987 7.39683 -0.00101461 7.27612 3.43249e-05C7.15541 0.00108326 7.03612 0.026162 6.9252 0.073807C6.81429 0.121452 6.71398 0.190709 6.63011 0.277538L0.266416 6.64124C0.0959864 6.81172 0.000244141 7.04291 0.000244141 7.28397C0.000244141 7.52503 0.0959864 7.75622 0.266416 7.92671L6.63011 14.2904C6.80157 14.456 7.03121 14.5476 7.26958 14.5456C7.50794 14.5435 7.73595 14.4479 7.90451 14.2793C8.07306 14.1108 8.16867 13.8828 8.17074 13.6444C8.17281 13.406 8.08118 13.1764 7.91558 13.0049L3.10372 8.19307H19.0911C19.3323 8.19307 19.5635 8.09729 19.734 7.9268C19.9045 7.75631 20.0002 7.52508 20.0002 7.28397C20.0002 7.04286 19.9045 6.81163 19.734 6.64114C19.5635 6.47065 19.3323 6.37487 19.0911 6.37487Z" fill="#0B1F50"/>
</svg>
