<svg width="50" height="50" viewBox="0 0 50 50" fill="none" xmlns="http://www.w3.org/2000/svg">
<path d="M42.5 7.5H40V2.5C40 1.83696 39.7366 1.20107 39.2678 0.732233C38.7989 0.263392 38.163 0 37.5 0C36.837 0 36.2011 0.263392 35.7322 0.732233C35.2634 1.20107 35 1.83696 35 2.5V7.5H15V2.5C15 1.83696 14.7366 1.20107 14.2678 0.732233C13.7989 0.263392 13.163 0 12.5 0C11.837 0 11.2011 0.263392 10.7322 0.732233C10.2634 1.20107 10 1.83696 10 2.5V7.5H7.5C5.51088 7.5 3.60322 8.29018 2.1967 9.6967C0.790177 11.1032 0 13.0109 0 15V17.5H50V15C50 13.0109 49.2098 11.1032 47.8033 9.6967C46.3968 8.29018 44.4891 7.5 42.5 7.5Z" fill="#9F9F9F"/>
<path d="M0 42.5C0 44.4891 0.790177 46.3968 2.1967 47.8033C3.60322 49.2098 5.51088 50 7.5 50H42.5C44.4891 50 46.3968 49.2098 47.8033 47.8033C49.2098 46.3968 50 44.4891 50 42.5V22.5H0V42.5Z" fill="#9F9F9F"/>
</svg>
