<svg width="15" height="17" viewBox="0 0 15 17" fill="none" xmlns="http://www.w3.org/2000/svg">
<path fill-rule="evenodd" clip-rule="evenodd" d="M11.6008 1.01388V2.22721C13.7008 2.42165 14.7197 3.67388 14.8753 5.53276C14.8986 5.75054 14.7119 5.94499 14.4864 5.94499H1.32641C1.10863 5.94499 0.921967 5.75832 0.937523 5.53276C1.09308 3.67388 2.11197 2.42165 4.21197 2.22721V1.01388C4.21197 0.694986 4.47641 0.430542 4.7953 0.430542C5.11419 0.430542 5.37863 0.694986 5.37863 1.01388V2.18054H10.4342V1.01388C10.4342 0.694986 10.6986 0.430542 11.0175 0.430542C11.3364 0.430542 11.6008 0.694986 11.6008 1.01388ZM1.68403 7.11173H14.1285C14.5563 7.11173 14.9062 7.46173 14.9062 7.88951V12.6806C14.9062 15.014 13.7396 16.5695 11.0174 16.5695H4.79514C2.07292 16.5695 0.90625 15.014 0.90625 12.6806V7.88951C0.90625 7.46173 1.25625 7.11173 1.68403 7.11173ZM5.69736 13.6546C5.71033 13.6433 5.72329 13.6321 5.73625 13.6217C5.87625 13.474 5.96181 13.2717 5.96181 13.0695C5.96181 12.8673 5.87625 12.6651 5.73625 12.5173L5.61958 12.424C5.57292 12.3928 5.52625 12.3695 5.47958 12.354C5.43292 12.3306 5.38625 12.3151 5.33958 12.3073C5.18403 12.2762 5.02847 12.2917 4.88847 12.354C4.78736 12.3928 4.70958 12.4473 4.63181 12.5173C4.49181 12.6651 4.40625 12.8673 4.40625 13.0695C4.40625 13.2717 4.49181 13.474 4.63181 13.6217C4.70958 13.6917 4.78736 13.7462 4.88847 13.7851C4.98181 13.824 5.08292 13.8473 5.18403 13.8473C5.23235 13.8473 5.27454 13.8412 5.32148 13.8343C5.32743 13.8335 5.33346 13.8326 5.33958 13.8317C5.38625 13.824 5.43292 13.8084 5.47958 13.7851C5.52625 13.7695 5.57292 13.7462 5.61958 13.7151C5.64551 13.6995 5.67144 13.677 5.69736 13.6546ZM5.18403 11.1251C5.38625 11.1251 5.58847 11.0395 5.73625 10.8995C5.87625 10.7517 5.96181 10.5495 5.96181 10.3473C5.96181 10.1451 5.87625 9.94284 5.73625 9.79507C5.66625 9.72507 5.58069 9.67062 5.47958 9.63173C5.19181 9.50729 4.84958 9.57729 4.63181 9.79507C4.49181 9.94284 4.40625 10.1451 4.40625 10.3473C4.40625 10.5495 4.49181 10.7517 4.63181 10.8995C4.77958 11.0395 4.98181 11.1251 5.18403 11.1251ZM7.90625 13.8473C8.10847 13.8473 8.31069 13.7617 8.45847 13.6217C8.59847 13.474 8.68403 13.2717 8.68403 13.0695C8.68403 12.8673 8.59847 12.6651 8.45847 12.5173C8.17069 12.2295 7.64181 12.2295 7.35403 12.5173C7.21403 12.6651 7.12847 12.8673 7.12847 13.0695C7.12847 13.2717 7.21403 13.474 7.35403 13.6217C7.50181 13.7617 7.70403 13.8473 7.90625 13.8473ZM8.34181 10.9928L8.45847 10.8995C8.59847 10.7517 8.68403 10.5495 8.68403 10.3473C8.68403 10.1451 8.59847 9.94284 8.45847 9.79507C8.24069 9.57729 7.89847 9.50729 7.61069 9.63173C7.50958 9.67062 7.42403 9.72507 7.35403 9.79507C7.21403 9.94284 7.12847 10.1451 7.12847 10.3473C7.12847 10.5495 7.21403 10.7517 7.35403 10.8995C7.50181 11.0395 7.70403 11.1251 7.90625 11.1251C7.95456 11.1251 7.99675 11.1189 8.04369 11.1121C8.04964 11.1113 8.05568 11.1104 8.06181 11.1095C8.10847 11.1017 8.15514 11.0862 8.20181 11.0628C8.24847 11.0473 8.29514 11.024 8.34181 10.9928ZM10.6285 13.8473C10.8307 13.8473 11.0329 13.7617 11.1807 13.6217C11.3207 13.474 11.4062 13.2717 11.4062 13.0695C11.4062 12.8673 11.3207 12.6651 11.1807 12.5173C10.8929 12.2295 10.364 12.2295 10.0763 12.5173C9.93625 12.6651 9.85069 12.8673 9.85069 13.0695C9.85069 13.2717 9.93625 13.474 10.0763 13.6217C10.224 13.7617 10.4263 13.8473 10.6285 13.8473ZM11.064 10.9928L11.1807 10.8995C11.3207 10.7517 11.4062 10.5495 11.4062 10.3473C11.4062 10.1451 11.3207 9.94284 11.1807 9.79507L11.064 9.70173C11.0174 9.67062 10.9707 9.64729 10.924 9.63173C10.8774 9.6084 10.8307 9.59284 10.784 9.58507C10.6285 9.55396 10.4729 9.56951 10.3329 9.63173C10.2318 9.67062 10.154 9.72507 10.0763 9.79507C9.93625 9.94284 9.85069 10.1451 9.85069 10.3473C9.85069 10.5495 9.93625 10.7517 10.0763 10.8995C10.224 11.0395 10.4263 11.1251 10.6285 11.1251C10.6751 11.1251 10.7296 11.1173 10.784 11.1095L10.784 11.1095C10.8307 11.1017 10.8774 11.0862 10.924 11.0628C10.9707 11.0473 11.0174 11.024 11.064 10.9928Z" fill="#BAC0CF"/>
</svg>
