<svg width="16" height="13" viewBox="0 0 16 13" fill="none" xmlns="http://www.w3.org/2000/svg">
<path fill-rule="evenodd" clip-rule="evenodd" d="M12.1872 2.33065H13.7698C14.7754 2.33065 15.5832 3.13844 15.5832 4.14405V10.5404C15.5832 11.546 14.7754 12.3538 13.7698 12.3538H2.22991C1.22429 12.3538 0.416504 11.546 0.416504 10.5404V4.14405C0.416504 3.13844 1.22429 2.33065 2.22991 2.33065H3.81252L4.68625 1.01181C5.01596 0.51724 5.59295 0.220501 6.18643 0.220501H9.81324C10.4067 0.220501 10.9837 0.51724 11.3134 1.01181L12.1872 2.33065ZM3.91143 6.78173C3.91143 9.04025 5.74132 10.8701 7.99984 10.8701C10.2584 10.8701 12.0882 9.04025 12.0882 6.79822C12.0882 4.5397 10.2584 2.70981 7.99984 2.70981C5.74132 2.70981 3.91143 4.52322 3.91143 6.78173ZM13.473 4.8859H13.539C13.8357 4.86941 14.05 4.62213 14.0335 4.32539C14.017 4.02865 13.7698 3.79786 13.473 3.81434H12.8136C12.5334 3.83083 12.319 4.04514 12.3026 4.32539C12.2861 4.62213 12.5169 4.86941 12.8136 4.8859H13.473ZM5.72451 6.79815C5.72451 5.54525 6.74661 4.52315 7.99951 4.52315C9.25241 4.52315 10.2745 5.52877 10.2745 6.78166C10.2745 8.03456 9.25241 9.05666 7.99951 9.05666C6.74661 9.05666 5.72451 8.05105 5.72451 6.79815Z" fill="white"/>
</svg>
