<svg width="13" height="13" viewBox="0 0 13 13" fill="none" xmlns="http://www.w3.org/2000/svg">
<path d="M6.08081 0.462952C4.89412 0.462952 3.73409 0.814846 2.74739 1.47413C1.7607 2.13342 0.991662 3.07049 0.537536 4.16685C0.0834104 5.26321 -0.0354098 6.46961 0.196102 7.63349C0.427613 8.79738 0.999057 9.86648 1.83817 10.7056C2.67729 11.5447 3.74638 12.1161 4.91027 12.3477C6.07416 12.5792 7.28056 12.4604 8.37691 12.0062C9.47327 11.5521 10.4103 10.7831 11.0696 9.79637C11.7289 8.80968 12.0808 7.64964 12.0808 6.46295C12.0789 4.87223 11.4462 3.34719 10.3214 2.22237C9.19658 1.09756 7.67154 0.46482 6.08081 0.462952ZM8.76316 8.65119C8.69741 8.73885 8.61215 8.81001 8.51414 8.85902C8.41612 8.90802 8.30804 8.93354 8.19846 8.93354C8.04573 8.93354 7.89711 8.884 7.77493 8.79236L5.65728 7.02766C5.56961 6.96191 5.49846 6.87665 5.44945 6.77863C5.40044 6.68061 5.37493 6.57254 5.37493 6.46295V3.28648C5.37493 3.09927 5.4493 2.91973 5.58168 2.78735C5.71406 2.65497 5.8936 2.5806 6.08081 2.5806C6.26802 2.5806 6.44757 2.65497 6.57995 2.78735C6.71232 2.91973 6.78669 3.09927 6.78669 3.28648V6.11001L8.62199 7.66295C8.69615 7.71857 8.75862 7.78825 8.80585 7.86801C8.85308 7.94778 8.88414 8.03606 8.89725 8.12783C8.91036 8.21959 8.90526 8.31305 8.88226 8.40284C8.85925 8.49264 8.81878 8.57703 8.76316 8.65119Z" fill="white"/>
</svg>
