<svg xmlns="http://www.w3.org/2000/svg" version="1.1" xmlns:xlink="http://www.w3.org/1999/xlink" xmlns:svgjs="http://svgjs.com/svgjs" width="512" height="512" x="0" y="0" viewBox="0 0 512 512" style="enable-background:new 0 0 512 512" xml:space="preserve" class=""><g><path d="M437.02 74.981A256 256 0 0 0 74.98 437.019 256 256 0 0 0 437.02 74.981zM256 488C128.075 488 24 383.925 24 256S128.075 24 256 24s232 104.075 232 232-104.075 232-232 232zm97.9-312.93L272.971 256l80.93 80.93a12 12 0 1 1-16.971 16.97L256 272.971 175.07 353.9a12 12 0 0 1-16.97-16.97L239.029 256 158.1 175.07a12 12 0 0 1 16.97-16.97L256 239.029l80.93-80.93a12 12 0 0 1 16.97 16.971z" fill="#ff4c51" data-original="#000000" class=""></path></g></svg>