<svg width="100" height="100" viewBox="0 0 100 100" fill="none" xmlns="http://www.w3.org/2000/svg">
<g clip-path="url(#clip0_322_114)">
<path d="M33.3344 12.5977C24.1305 12.5977 16.668 20.0602 16.668 29.2641C16.668 38.467 24.1305 45.9295 33.3344 45.9295C42.5383 45.9295 50.0008 38.4689 50.0008 29.2641C50.0008 20.0583 42.5383 12.5977 33.3344 12.5977Z" fill="white"/>
<path d="M50.0002 54.2637H16.6664C7.4625 54.2637 0 61.7271 0 70.931V87.5975H66.6666V80.5746C56.8323 75.8825 50.0002 65.8689 50.0002 54.2637Z" fill="white"/>
<path d="M79.167 33.4316C67.6609 33.4316 58.334 42.7576 58.334 54.2647C58.334 65.7717 67.6609 75.0977 79.167 75.0977C90.674 75.0977 100.001 65.7717 100.001 54.2637C100.001 42.7567 90.674 33.4316 79.167 33.4316ZM91.6668 57.3889H82.2922V66.7635H76.0418V57.3889H66.6672V51.1404H76.0418V41.7648H82.2922V51.1404H91.6668V57.3889Z" fill="white"/>
</g>
<defs>
<clipPath id="clip0_322_114">
<rect width="100" height="100" fill="white"/>
</clipPath>
</defs>
</svg>
