<svg width="16" height="16" viewBox="0 0 16 16" fill="none" xmlns="http://www.w3.org/2000/svg">
<path fill-rule="evenodd" clip-rule="evenodd" d="M13.6 0H11.2C9.84003 0 8.80003 1.04 8.80003 2.4V13.6C8.80003 14.96 9.84003 16 11.2 16H13.6C14.96 16 16 14.96 16 13.6V2.4C16 1.04 14.96 0 13.6 0ZM4.8 6.4H2.4C1.04 6.4 0 7.44 0 8.8V13.6C0 14.96 1.04 16 2.4 16H4.8C6.16 16 7.2 14.96 7.2 13.6V8.8C7.2 7.44 6.16 6.4 4.8 6.4ZM2.4 0H4.8C6.16 0 7.2 1.04 7.2 2.4C7.2 3.76 6.16 4.8 4.8 4.8H2.4C1.04 4.8 0 3.76 0 2.4C0 1.04 1.04 0 2.4 0Z" fill="#F5F4F8"/>
</svg>
