<svg width="12" height="15" viewBox="0 0 12 15" fill="none" xmlns="http://www.w3.org/2000/svg">
<path d="M1.35083 4.96484V9.66794C1.42 10.567 1.48916 11.7428 1.55833 12.5728C1.62749 13.5411 2.45744 14.3019 3.42573 14.3019H8.54378C9.51207 14.3019 10.342 13.5411 10.4112 12.5728C10.4804 11.7428 10.5495 10.567 10.6187 9.66794C10.6878 8.63046 10.6187 6.48639 10.6187 4.96484H1.35083Z" fill="white"/>
<path d="M10.8416 2.88996H9.11256L8.55926 1.85251C8.21346 1.23005 7.59097 0.815063 6.8993 0.815063H5.23941C4.54777 0.815063 3.85614 1.23005 3.57949 1.85251L2.88786 2.88996H1.15877C0.882124 2.88996 0.605469 3.16661 0.605469 3.44327C0.605469 3.71992 0.882124 3.99657 1.15877 3.99657H10.8416C11.1182 3.99657 11.3949 3.78908 11.3949 3.44327C11.3949 3.09745 11.1182 2.88996 10.8416 2.88996ZM4.06363 2.88996L4.40945 2.33665C4.54777 2.06 4.82442 1.85251 5.17022 1.85251H6.83018C7.17598 1.85251 7.4526 1.99084 7.59097 2.33665L7.93677 2.88996H4.06363Z" fill="white"/>
</svg>
