<svg width="15" height="15" viewBox="0 0 15 15" fill="none" xmlns="http://www.w3.org/2000/svg">
<path fill-rule="evenodd" clip-rule="evenodd" d="M11.6 6.88008L4.73735 13.7427C4.54226 13.9378 4.28192 14.0559 4.00593 14.0742L1.53438 14.2393C1.20619 14.2608 0.883866 14.1401 0.651587 13.9072C0.418656 13.6742 0.297297 13.3526 0.319481 13.0237L0.483903 10.5522C0.502825 10.2762 0.620269 10.0165 0.81601 9.82076L7.67868 2.95874L11.6 6.88008ZM8.37029 2.26647L9.87032 0.767101C10.2063 0.430427 10.6631 0.241211 11.1387 0.241211C11.6144 0.241211 12.0711 0.430427 12.4078 0.767101L13.7917 2.15099C14.1283 2.48766 14.3169 2.94374 14.3169 3.42004C14.3169 3.89569 14.1283 4.35176 13.7917 4.68844L12.2923 6.18781L8.37029 2.26647Z" fill="white"/>
</svg>
