<svg width="14" height="14" viewBox="0 0 14 14" fill="none" xmlns="http://www.w3.org/2000/svg">
<path d="M10.5444 13.7528H3.45423C3.06627 13.7528 2.68212 13.6763 2.32369 13.5279C1.96527 13.3794 1.6396 13.1618 1.36527 12.8875C1.09095 12.6132 0.873341 12.2875 0.724877 11.9291C0.576413 11.5706 0.5 11.1865 0.5 10.7985V3.70838C0.5 2.92487 0.811248 2.17345 1.36527 1.61942C1.9193 1.0654 2.67072 0.75415 3.45423 0.75415H6.9993C7.156 0.75415 7.30629 0.8164 7.41709 0.927205C7.5279 1.03801 7.59015 1.18829 7.59015 1.345C7.59015 1.5017 7.5279 1.65198 7.41709 1.76279C7.30629 1.87359 7.156 1.93584 6.9993 1.93584H3.45423C2.98412 1.93584 2.53327 2.12259 2.20086 2.45501C1.86844 2.78742 1.68169 3.23827 1.68169 3.70838V10.7985C1.68169 11.2686 1.86844 11.7195 2.20086 12.0519C2.53327 12.3843 2.98412 12.5711 3.45423 12.5711H10.5444C11.0145 12.5711 11.4653 12.3843 11.7977 12.0519C12.1302 11.7195 12.3169 11.2686 12.3169 10.7985V7.25345C12.3169 7.09675 12.3792 6.94647 12.49 6.83566C12.6008 6.72486 12.7511 6.66261 12.9078 6.66261C13.0645 6.66261 13.2147 6.72486 13.3255 6.83566C13.4364 6.94647 13.4986 7.09675 13.4986 7.25345V10.7985C13.4986 11.1865 13.4222 11.5706 13.2737 11.9291C13.1253 12.2875 12.9077 12.6132 12.6333 12.8875C12.359 13.1618 12.0333 13.3794 11.6749 13.5279C11.3165 13.6763 10.9323 13.7528 10.5444 13.7528Z" fill="white"/>
<path d="M12.4704 5.1261L12.9785 4.61797C13.1438 4.45329 13.2749 4.25762 13.3644 4.04216C13.4538 3.82671 13.4999 3.59571 13.4999 3.36242C13.4999 3.12913 13.4538 2.89814 13.3644 2.68268C13.2749 2.46723 13.1438 2.27155 12.9785 2.10688L12.1454 1.27378C11.9808 1.10854 11.7851 0.977421 11.5696 0.887957C11.3542 0.798494 11.1232 0.752441 10.8899 0.752441C10.6566 0.752441 10.4256 0.798494 10.2102 0.887957C9.9947 0.977421 9.79902 1.10854 9.63435 1.27378L9.12622 1.78191L12.4704 5.1261Z" fill="white"/>
<path d="M8.29335 2.61499L4.56512 6.34323C4.39977 6.50837 4.26871 6.70457 4.17947 6.92056C4.09024 7.13654 4.0446 7.36804 4.04517 7.60173V8.43482C4.04517 8.90493 4.23192 9.35578 4.56434 9.68819C4.89675 10.0206 5.3476 10.2074 5.81771 10.2074H6.6508C6.88449 10.2079 7.11599 10.1623 7.33197 10.0731C7.54795 9.98382 7.74416 9.85276 7.9093 9.68741L11.6375 5.95918L8.29335 2.61499Z" fill="white"/>
</svg>
