<svg width="117" height="117" viewBox="0 0 117 117" fill="none" xmlns="http://www.w3.org/2000/svg">
<path d="M0.5 44.0001L56.354 79.5468C56.992 80.0181 57.746 80.2501 58.5 80.2501C59.254 80.2501 60.008 80.0181 60.646 79.5468L116.5 44.0001L60.675 1.22508C59.3845 0.26083 57.6155 0.26083 56.325 1.22508L0.5 44.0001Z" fill="#8A2BE2"/>
<path d="M94.75 0.5H22.25C18.2552 0.5 15 3.75525 15 7.75V87.5C15 89.501 16.624 91.125 18.625 91.125H98.375C100.376 91.125 102 89.501 102 87.5V7.75C102 3.75525 98.752 0.5 94.75 0.5Z" fill="#ECEFF1"/>
<path d="M33.125 22.25H83.875C85.876 22.25 87.5 20.626 87.5 18.625C87.5 16.624 85.876 15 83.875 15H33.125C31.124 15 29.5 16.624 29.5 18.625C29.5 20.626 31.124 22.25 33.125 22.25Z" fill="#90A4AE"/>
<path d="M83.875 29.5H33.125C31.124 29.5 29.5 31.124 29.5 33.125C29.5 35.126 31.124 36.75 33.125 36.75H83.875C85.876 36.75 87.5 35.126 87.5 33.125C87.5 31.124 85.876 29.5 83.875 29.5Z" fill="#90A4AE"/>
<path d="M62.125 44H33.125C31.124 44 29.5 45.624 29.5 47.625C29.5 49.626 31.124 51.25 33.125 51.25H62.125C64.126 51.25 65.75 49.626 65.75 47.625C65.75 45.624 64.126 44 62.125 44Z" fill="#90A4AE"/>
<path d="M60.646 79.5467C60.008 80.018 59.254 80.25 58.5 80.25C57.746 80.25 56.992 80.018 56.354 79.5467L0.5 44V109.25C0.5 113.252 3.748 116.5 7.75 116.5H109.25C113.252 116.5 116.5 113.252 116.5 109.25V44L60.646 79.5467Z" fill="#7621C5"/>
<path d="M109.25 116.5H7.75C3.68275 116.5 0.5 113.317 0.5 109.25C0.5 108.097 1.051 107.01 1.979 106.328L56.354 70.0783C56.992 69.607 57.746 69.375 58.5 69.375C59.254 69.375 60.008 69.607 60.646 70.0783L115.021 106.328C115.949 107.01 116.5 108.097 116.5 109.25C116.5 113.317 113.317 116.5 109.25 116.5Z" fill="#8A2BE2"/>
</svg>
