<svg width="16" height="20" viewBox="0 0 16 20" fill="none" xmlns="http://www.w3.org/2000/svg">
<path fill-rule="evenodd" clip-rule="evenodd" d="M13.2498 11.7409H9.2504C9.58043 10.7506 9.75582 9.91708 9.78474 9.20638C9.85297 7.52975 9.06132 6.86616 8.38521 6.60436C8.35694 6.59325 8.32752 6.58535 8.29748 6.58082C7.77362 6.49805 7.58711 6.74451 7.46353 7.02304L7.44731 7.05956C7.4292 7.09957 7.41738 7.14213 7.41225 7.18574C7.24507 8.61602 6.63432 9.95808 5.66568 11.0236V19.014C5.77373 19.0535 5.8841 19.0865 5.99617 19.1126C6.02652 19.1197 6.05755 19.1236 6.08872 19.124C6.42352 19.1276 6.82259 19.1294 7.28286 19.1294C7.74199 19.1294 8.26185 19.1276 8.83878 19.124H12.6065C12.8268 19.1241 13.0432 19.0656 13.2335 18.9546C13.4237 18.8435 13.5811 18.684 13.6895 18.4921C13.7978 18.3003 13.8533 18.0832 13.8502 17.8629C13.8471 17.6426 13.7855 17.4271 13.6718 17.2384C13.9233 17.048 14.0928 16.7689 14.146 16.4579C14.1992 16.147 14.1321 15.8274 13.9583 15.5642C14.2023 15.3572 14.3571 15.0641 14.3904 14.7459C14.4237 14.4276 14.3329 14.1088 14.1369 13.8559C14.3088 13.6812 14.4251 13.4596 14.4714 13.2189C14.5177 12.9783 14.4918 12.7293 14.397 12.5034C14.3022 12.2774 14.1427 12.0845 13.9386 11.9488C13.7345 11.8132 13.4949 11.7409 13.2498 11.7411V11.7409ZM4.82952 4.56767C4.8042 4.48963 4.75699 4.4205 4.69351 4.36851C4.63004 4.31653 4.55296 4.28386 4.47146 4.27441L3.30314 4.14L2.81455 3.0711C2.7806 2.99634 2.72583 2.93294 2.6568 2.88847C2.58777 2.84401 2.5074 2.82036 2.42529 2.82036C2.34318 2.82036 2.2628 2.84401 2.19377 2.88847C2.12474 2.93294 2.06998 2.99634 2.03602 3.0711L1.54744 4.14L0.379148 4.27441C0.297642 4.28377 0.220544 4.31636 0.157035 4.36829C0.0935272 4.42023 0.0462859 4.48933 0.0209383 4.56735C-0.00440932 4.64538 -0.00679499 4.72905 0.0140656 4.80839C0.0349262 4.88774 0.0781539 4.95941 0.1386 5.01489L1.00457 5.81017L0.771443 6.9627C0.755339 7.04306 0.762625 7.12635 0.792436 7.20269C0.822247 7.27904 0.873331 7.34523 0.939628 7.39341C1.00593 7.44159 1.08465 7.46975 1.16647 7.47453C1.24829 7.47931 1.32976 7.46053 1.40122 7.4204L2.42518 6.84227L3.44936 7.4204C3.52079 7.46072 3.60231 7.47966 3.68421 7.47496C3.7661 7.47026 3.84492 7.44212 3.91128 7.3939C3.97764 7.34568 4.02874 7.2794 4.0585 7.20296C4.08825 7.12652 4.09542 7.04313 4.07913 6.96274L3.846 5.81021L4.71198 5.01492C4.77236 4.95948 4.81554 4.88785 4.83638 4.80856C4.85721 4.72927 4.85482 4.64567 4.82949 4.5677L4.82952 4.56767ZM15.979 4.56767C16.0044 4.64563 16.0068 4.72923 15.986 4.80852C15.9652 4.8878 15.922 4.95944 15.8616 5.01489L14.9956 5.81017L15.2287 6.9627C15.245 7.04309 15.2378 7.12647 15.208 7.2029C15.1783 7.27934 15.1272 7.34561 15.0608 7.39383C14.9945 7.44205 14.9157 7.47019 14.8338 7.4749C14.7519 7.4796 14.6704 7.46067 14.599 7.42037L13.575 6.84223L12.551 7.42037C12.4795 7.46068 12.398 7.47962 12.3161 7.47492C12.2342 7.47022 12.1554 7.44209 12.089 7.39386C12.0227 7.34564 11.9716 7.27936 11.9418 7.20292C11.9121 7.12648 11.9049 7.0431 11.9212 6.9627L12.1543 5.81017L11.2883 5.01489C11.2279 4.95941 11.1847 4.88774 11.1638 4.80839C11.1429 4.72905 11.1453 4.64538 11.1707 4.56735C11.196 4.48933 11.2433 4.42023 11.3068 4.36829C11.3703 4.31636 11.4474 4.28377 11.5289 4.27441L12.6968 4.14L13.1856 3.0711C13.2196 2.99634 13.2743 2.93295 13.3433 2.88848C13.4124 2.84402 13.4927 2.82038 13.5748 2.82038C13.6569 2.82038 13.7373 2.84402 13.8063 2.88848C13.8753 2.93295 13.9301 2.99634 13.964 3.0711L14.4528 4.14L15.6208 4.27441C15.7024 4.28385 15.7794 4.3165 15.8429 4.36849C15.9064 4.42048 15.9536 4.48962 15.9789 4.56767H15.979ZM10.8807 2.9635C10.8554 2.88537 10.8082 2.81612 10.7447 2.76395C10.6812 2.71178 10.6042 2.67885 10.5226 2.66907L9.01856 2.49746L8.38924 1.11936C8.35491 1.04502 8.30001 0.982062 8.23103 0.937936C8.16206 0.893811 8.08188 0.870361 8 0.870361C7.91811 0.870361 7.83794 0.893811 7.76896 0.937936C7.69998 0.982062 7.64508 1.04502 7.61075 1.11936L6.98137 2.49735L5.47738 2.66896C5.39593 2.67852 5.31893 2.71124 5.25551 2.76324C5.1921 2.81524 5.14493 2.88435 5.11961 2.96235C5.09429 3.04035 5.09187 3.12398 5.11265 3.20331C5.13343 3.28265 5.17653 3.35436 5.23683 3.40993L6.35188 4.43425L6.05166 5.91784C6.03543 5.99822 6.04263 6.08157 6.07241 6.15798C6.10219 6.23438 6.1533 6.30062 6.21964 6.34882C6.28599 6.39701 6.36479 6.42513 6.44666 6.42982C6.52852 6.43451 6.61002 6.41559 6.68144 6.37529L7.99998 5.63154L9.31852 6.37536C9.38994 6.41565 9.47143 6.43457 9.55329 6.42987C9.63515 6.42517 9.71394 6.39705 9.78028 6.34886C9.84663 6.30067 9.89773 6.23443 9.9275 6.15803C9.95728 6.08163 9.96449 5.99829 9.94826 5.91791L9.64812 4.43432L10.7632 3.40993C10.8235 3.35462 10.8667 3.28311 10.8876 3.20394C10.9084 3.12478 10.9061 3.04128 10.8809 2.9634L10.8807 2.9635ZM4.80976 11.8183C4.7344 11.6985 4.62988 11.5997 4.50599 11.5313C4.3821 11.4628 4.24287 11.4268 4.10131 11.4268H1.1474C0.925348 11.427 0.712439 11.5153 0.555398 11.6722C0.398357 11.8292 0.310012 12.0421 0.309747 12.2642V18.2915C0.309936 18.5137 0.398236 18.7267 0.555274 18.8838C0.712312 19.0409 0.925262 19.1293 1.1474 19.1296H4.10131C4.24284 19.1295 4.38203 19.0936 4.50591 19.0252C4.6298 18.9568 4.73433 18.8581 4.80976 18.7384V11.8183ZM1.39216 12.9988C1.39216 12.8853 1.43725 12.7764 1.51751 12.6962C1.59776 12.6159 1.70662 12.5708 1.82012 12.5708H2.1342C2.24771 12.5708 2.35656 12.6159 2.43682 12.6962C2.51707 12.7764 2.56216 12.8853 2.56216 12.9988C2.56216 13.1123 2.51707 13.2211 2.43682 13.3014C2.35656 13.3816 2.24771 13.4267 2.1342 13.4267H1.82015C1.76395 13.4267 1.7083 13.4157 1.65637 13.3942C1.60444 13.3727 1.55726 13.3411 1.51752 13.3014C1.47778 13.2617 1.44625 13.2145 1.42474 13.1625C1.40323 13.1106 1.39216 13.055 1.39216 12.9988Z" fill="white"/>
</svg>
