<svg width="40" height="40" viewBox="0 0 40 40" fill="none" xmlns="http://www.w3.org/2000/svg">
<path d="M20 0C8.97143 0 0 8.97243 0 20C0 31.0276 8.97143 40 20 40C31.0286 40 40 31.0276 40 20C40 8.97243 31.0286 0 20 0ZM20 38.0952C10.0219 38.0952 1.9048 29.978 1.9048 20C1.9048 10.022 10.022 1.9048 20 1.9048C29.978 1.9048 38.0953 10.0219 38.0953 20C38.0953 29.9781 29.9781 38.0952 20 38.0952Z" fill="#8A2BE2"/>
<path d="M23.5208 20.2257C23.4332 19.5677 23.0322 18.9818 22.4465 18.6581C21.8627 18.3343 21.1837 18.3066 20.5856 18.58V18.581C19.0437 19.2839 17.2018 18.6848 16.3923 17.2124C15.1904 15.0238 13.1656 14.4991 13.1322 14.4925C10.5312 13.6849 9.37218 13.1153 8.86269 12.7914C8.98836 12.7496 9.14651 12.7028 9.34361 12.6572C10.0112 12.499 10.7312 12.4362 11.4846 12.4772C15.2999 12.6534 17.2274 9.94759 17.7198 8.48006C18.4141 6.40864 16.5417 2.70864 15.7045 1.21433L15.3379 0.559082L14.615 0.763881C7.76548 2.69625 2.40834 8.1477 0.633119 14.9914L0.454102 15.6791L1.06169 16.0457C2.81883 17.1085 4.59026 17.04 4.9531 17.0114C5.89975 17.019 6.63781 17.3009 7.20923 17.8753C8.49205 19.1629 8.62062 21.5933 8.61682 22.5782C8.61303 23.5811 8.70443 24.4801 8.89774 25.3277C10.053 30.383 13.4702 30.8134 14.5996 30.8134C14.7129 30.8134 14.8034 30.8096 14.8663 30.8039C16.4739 30.7907 17.9167 29.8991 18.6387 28.4678C19.0473 27.6583 19.6826 26.9583 20.474 26.444C23.5761 24.4296 23.7141 21.6829 23.5208 20.2257ZM19.437 24.8467C18.3637 25.5438 17.4999 26.499 16.9399 27.6095C16.538 28.4047 15.7313 28.899 14.8332 28.899L14.699 28.9085C14.5809 28.9285 11.7542 29.2752 10.7561 24.9028C10.5952 24.199 10.5189 23.4409 10.5227 22.5848C10.5284 21.0667 10.2818 18.26 8.5599 16.5305C7.61805 15.5858 6.39227 15.1067 4.91515 15.1067L4.81604 15.1124C4.80365 15.1143 3.81035 15.2019 2.68267 14.7372C4.39696 9.13241 8.79595 4.65908 14.4037 2.81812C15.4179 4.78285 16.2074 6.99524 15.9122 7.87337C15.9037 7.90194 14.9104 10.7581 11.5808 10.5744C10.6455 10.5305 9.7474 10.6039 8.90555 10.8029C8.3522 10.9334 6.66649 11.3305 6.62084 12.6353C6.58178 13.7525 7.56269 14.7572 12.6114 16.3239C12.6647 16.3382 13.9351 16.6943 14.7227 18.1296C16.0085 20.4725 18.9313 21.4334 21.377 20.3124C21.4227 20.2933 21.4732 20.2962 21.5246 20.3248C21.5542 20.3401 21.6208 20.3868 21.6332 20.4763C21.8723 22.2744 21.1332 23.7448 19.437 24.8467Z" fill="#8A2BE2"/>
<path d="M39.3136 14.7391L39.0964 13.9267L38.264 14.0401C34.1392 14.6039 32.2012 13.8935 31.5592 13.5601C30.5611 13.0439 29.4659 12.9943 28.5582 13.4305C27.3153 14.0219 25.9239 15.54 26.3572 19.4601C26.3772 19.5792 26.8753 22.3954 29.9772 23.9601C30.9381 24.4449 31.4457 25.501 31.2114 26.5286C30.5047 29.6305 31.1942 32.1658 33.2076 33.861L33.8963 34.441L34.5143 33.7868C38.0515 30.0391 40.0001 25.1306 40.0001 19.9639C40.0002 18.201 39.7688 16.4429 39.3136 14.7391ZM33.7907 31.7391C32.8583 30.5515 32.6155 28.9467 33.0707 26.9524C33.4993 25.0686 32.5812 23.1391 30.8364 22.2591C28.6269 21.1438 28.2526 19.2219 28.2459 19.2C28.0774 17.6782 28.1383 15.74 29.3802 15.1486C29.5316 15.0763 29.7031 15.04 29.884 15.04C30.1392 15.04 30.4144 15.1114 30.685 15.2514C31.6165 15.7333 33.7249 16.4409 37.6678 16.0295C37.9516 17.3228 38.0954 18.6409 38.0954 19.9638C38.0955 24.3086 36.5735 28.4534 33.7907 31.7391Z" fill="#8A2BE2"/>
<path d="M32.7807 4.61807C31.3484 3.42667 29.7551 2.44095 28.0427 1.6885L27.5027 1.45044L26.638 2.17231C25.6313 2.95993 22.5656 5.35513 23.976 8.07611L24.1027 8.26472C24.6446 8.8866 25.8027 9.70088 27.2427 9.70088C27.936 9.70088 28.6941 9.51138 29.4788 9.02086C29.9788 8.70948 30.4246 8.28091 30.8807 7.67321C31.1169 7.35892 31.5645 6.87321 32.2931 6.377L33.837 5.49698L32.7807 4.61807ZM29.3587 6.52856C29.0474 6.94385 28.7654 7.22187 28.472 7.40479C27.0321 8.30189 25.9178 7.3876 25.612 7.0876C25.4311 6.67622 25.2567 5.67711 27.8063 3.67522C28.771 4.13716 29.692 4.6828 30.5567 5.30479C29.9768 5.78091 29.595 6.21528 29.3587 6.52856Z" fill="#8A2BE2"/>
<path d="M25.2571 38.12C24.8561 37.2819 24.5665 36.3124 24.397 35.2391C24.0571 33.0886 22.2065 31.5277 19.9989 31.5277C16.5941 31.5277 13.8218 34.283 13.7922 37.6801L13.6475 38.983L14.4179 39.2058C16.2379 39.7334 18.115 40.0001 19.9998 40.0001C21.5437 40.0001 23.0969 39.8182 24.617 39.4583L25.7674 39.1859L25.2571 38.12ZM15.6999 37.5763C15.7837 35.2773 17.6799 33.4324 19.9989 33.4324C21.2437 33.4324 22.3256 34.3372 22.5151 35.5372C22.6437 36.3496 22.8332 37.1162 23.0817 37.8296C20.6199 38.2553 18.1114 38.1658 15.6999 37.5763Z" fill="#8A2BE2"/>
</svg>
