<svg width="24" height="20" viewBox="0 0 24 20" fill="none" xmlns="http://www.w3.org/2000/svg">
<path d="M21.8344 2.95004H16.9178V1.96668C16.9178 0.882047 16.0358 0 14.9511 0H9.05114C7.96652 0 7.08447 0.882001 7.08447 1.96668V2.94999H2.16785C1.08317 2.95004 0.201172 3.83204 0.201172 4.91667V7.86666C0.201172 8.95133 1.08317 9.83333 2.16785 9.83333H10.0345V9.34165C10.0345 9.06989 10.2544 8.84997 10.5262 8.84997H13.4762C13.7479 8.84997 13.9679 9.06989 13.9679 9.34165V9.83333H21.8345C22.9191 9.83333 23.8011 8.95133 23.8011 7.86666V4.91667C23.8011 3.83204 22.9191 2.95004 21.8344 2.95004ZM14.9511 2.95004H9.05114V1.96668H14.9511V2.95004Z" fill="white"/>
<path d="M23.5284 10.3639C23.3608 10.2808 23.1606 10.3 23.0127 10.4124C22.6631 10.6769 22.2559 10.8167 21.8344 10.8167H13.9678V12.2916C13.9678 12.5634 13.7479 12.7833 13.4761 12.7833H10.5261C10.2544 12.7833 10.0345 12.5634 10.0345 12.2916V10.8167H2.16785C1.74628 10.8167 1.33913 10.6769 0.989557 10.4124C0.841182 10.2991 0.641458 10.2798 0.473862 10.3639C0.306818 10.447 0.201172 10.6174 0.201172 10.8042V17.7C0.201172 18.7846 1.08317 19.6667 2.16785 19.6667H21.8345C22.9191 19.6667 23.8011 18.7847 23.8011 17.7V10.8042C23.8011 10.6174 23.6955 10.447 23.5284 10.3639Z" fill="white"/>
</svg>
