<svg width="15" height="15" viewBox="0 0 15 15" fill="none" xmlns="http://www.w3.org/2000/svg">
<path d="M14.6017 5.36474L9.99037 4.66036L7.92346 0.257796C7.76909 -0.0709581 7.2297 -0.0709581 7.07533 0.257796L5.00905 4.66036L0.397735 5.36474C0.0189802 5.42286 -0.132272 5.8835 0.133357 6.15538L3.4834 9.58917L2.69152 14.4436C2.62839 14.8292 3.04027 15.1186 3.3809 14.9292L7.49971 12.653L11.6185 14.9299C11.956 15.1174 12.3716 14.8336 12.3079 14.4442L11.516 9.5898L14.8661 6.156C15.1317 5.8835 14.9798 5.42286 14.6017 5.36474Z" fill="#DFDFDF"/>
<path d="M7.49971 0.0112306C7.32616 0.0111318 7.15256 0.0933204 7.07533 0.257796L5.00905 4.66036L0.397735 5.36474C0.0189802 5.42286 -0.132272 5.8835 0.133357 6.15538L3.4834 9.58917L2.69152 14.4436C2.62839 14.8292 3.04027 15.1186 3.3809 14.9292L7.49971 12.653C7.49971 10.5081 7.49971 1.15858 7.49971 0.0112306Z" fill="#F4C039"/>
</svg>
