<svg width="100" height="100" viewBox="0 0 100 100" fill="none" xmlns="http://www.w3.org/2000/svg">
<g clip-path="url(#clip0_316_58)">
<path d="M88.2461 29.4424V41.9188L96.1696 36.0327L88.2461 29.4424Z" fill="white"/>
<path d="M54.8169 1.74826C52.0248 -0.565915 47.9749 -0.591069 45.1828 1.7231L41.9883 4.43974H58.0617L54.8169 1.74826Z" fill="white"/>
<path d="M57.5079 71.0478C55.3447 72.6577 52.7287 73.5381 50.0372 73.5129C47.3457 73.5129 44.7045 72.6577 42.5413 71.0478L2.47084 41.1396V92.4288C2.44569 96.5792 5.79118 99.975 9.9416 100H90.0573C94.2077 99.975 97.5532 96.5792 97.5281 92.4288V41.1396L57.5079 71.0478Z" fill="white"/>
<path d="M3.85547 36.0329L11.5275 41.7429V29.6689L3.85547 36.0329Z" fill="white"/>
<path d="M16.5586 9.4707V45.4913L45.4858 67.0232C48.1773 68.9852 51.8749 68.9852 54.5664 67.0232L83.2169 45.6674V9.4707H16.5586ZM34.418 29.594H48.0012C49.3847 29.594 50.5166 30.7259 50.5166 32.1094C50.5166 33.4928 49.3847 34.6248 48.0012 34.6248H34.418C33.0345 34.6248 31.9026 33.4928 31.9026 32.1094C31.9026 30.7259 33.0345 29.594 34.418 29.594ZM65.609 47.2018H34.418C33.0345 47.2018 31.9026 46.0699 31.9026 44.6864C31.9026 43.3029 33.0345 42.171 34.418 42.171H65.609C66.9925 42.171 68.1244 43.3029 68.1244 44.6864C68.1244 46.0699 66.9925 47.2018 65.609 47.2018Z" fill="white"/>
</g>
<defs>
<clipPath id="clip0_316_58">
<rect width="100" height="100" fill="white"/>
</clipPath>
</defs>
</svg>
