<svg width="8" height="14" viewBox="0 0 8 14" fill="none" xmlns="http://www.w3.org/2000/svg">
<path d="M0.217211 6.53801L6.27705 0.478284C6.4172 0.338017 6.6043 0.260742 6.8038 0.260742C7.00329 0.260742 7.19039 0.338017 7.33055 0.478284L7.77681 0.924438C8.0672 1.21516 8.0672 1.68766 7.77681 1.97794L2.68822 7.06653L7.78246 12.1608C7.92261 12.301 8 12.488 8 12.6874C8 12.887 7.92261 13.074 7.78246 13.2144L7.33619 13.6604C7.19593 13.8007 7.00894 13.878 6.80944 13.878C6.60995 13.878 6.42285 13.8007 6.28269 13.6604L0.217211 7.59516C0.0767226 7.45445 -0.000440598 7.26658 1.90735e-06 7.06686C-0.000440598 6.86637 0.0767226 6.67861 0.217211 6.53801Z" fill="#737B8B"/>
</svg>
