<svg width="17" height="18" viewBox="0 0 17 18" fill="none" xmlns="http://www.w3.org/2000/svg">
<path fill-rule="evenodd" clip-rule="evenodd" d="M6.34473 2.65649C6.34473 2.52809 6.28314 2.40728 6.17874 2.33208C6.07434 2.25688 5.94034 2.23649 5.81834 2.27729C2.63953 3.33569 0.344727 6.33649 0.344727 9.86929C0.344727 14.2845 3.92953 17.8693 8.34473 17.8693C12.7599 17.8693 16.3447 14.2845 16.3447 9.86929C16.3447 6.33649 14.0499 3.33569 10.8711 2.27729C10.7491 2.23649 10.6151 2.25688 10.5107 2.33208C10.4063 2.40728 10.3447 2.52809 10.3447 2.65649V4.36929C10.3447 4.52809 10.4387 4.67209 10.5843 4.73569C12.5615 5.60049 13.9447 7.57449 13.9447 9.86929C13.9447 12.9601 11.4355 15.4693 8.34473 15.4693C5.25393 15.4693 2.74473 12.9601 2.74473 9.86929C2.74473 7.57449 4.12793 5.60049 6.10513 4.73569C6.25073 4.67209 6.34473 4.52809 6.34473 4.36929V2.65649ZM9.54473 1.26929C9.54473 1.00409 9.43953 0.749685 9.25193 0.562085C9.06433 0.374485 8.80993 0.269287 8.54473 0.269287C8.41393 0.269287 8.27553 0.269287 8.14473 0.269287C7.87953 0.269287 7.62512 0.374485 7.43752 0.562085C7.24992 0.749685 7.14473 1.00409 7.14473 1.26929V4.86929C7.14473 5.13449 7.24992 5.38889 7.43752 5.57649C7.62512 5.76409 7.87953 5.86929 8.14473 5.86929H8.54473C8.80993 5.86929 9.06433 5.76409 9.25193 5.57649C9.43953 5.38889 9.54473 5.13449 9.54473 4.86929V1.26929Z" fill="white"/>
</svg>
