<svg width="80" height="81" viewBox="0 0 80 81" fill="none" xmlns="http://www.w3.org/2000/svg">
<path d="M47.8693 80.1118C34.3311 80.1118 24.1776 76.558 17.4085 69.4505C10.7071 62.343 7.35645 52.5617 7.35645 40.1067C7.35645 32.5253 8.87948 25.7224 11.9256 19.698C14.9716 13.6058 19.5408 8.79977 25.6329 5.27986C31.7251 1.75995 39.1372 0 47.8693 0C51.4569 0 54.6383 0.304608 57.4136 0.913823C60.2566 1.45534 63.3027 2.40301 66.5519 3.75683V19.5964C60.7982 16.8211 54.7399 15.4335 48.3769 15.4335C43.977 15.4335 40.051 16.5165 36.5988 18.6826C33.2142 20.781 30.5743 23.6917 28.679 27.4147C26.7836 31.1377 25.836 35.3345 25.836 40.0051C25.836 47.4511 27.7652 53.4417 31.6235 57.977C35.5496 62.4446 40.9648 64.6783 47.8693 64.6783C51.1184 64.6783 54.2999 64.2045 57.4136 63.2568C60.5274 62.2415 63.8104 60.82 67.2626 58.9923L72.644 73.9181C68.718 75.9488 64.5888 77.4719 60.2566 78.4872C55.9244 79.5703 51.7953 80.1118 47.8693 80.1118Z" fill="white"/>
</svg>
