<svg width="320" height="44" viewBox="0 0 320 44" fill="none" xmlns="http://www.w3.org/2000/svg">
<path fill-rule="evenodd" clip-rule="evenodd" d="M201.996 0.14679H192.409V8.46679H201.996V0.14679ZM192.409 19.5094H187.087L191.908 11.6761H193.285V11.7304H201.996V42.9166H192.409V19.5094ZM21.9846 43.8533C14.6381 43.8533 9.12812 41.9248 5.45483 38.0678C1.81828 34.2109 0 28.903 0 22.1441C0 18.03 0.82649 14.3384 2.47947 11.0692C4.13245 7.76321 6.61192 5.15518 9.91788 3.24507C13.2238 1.33496 17.2461 0.379903 21.9846 0.379903C23.9315 0.379903 25.6579 0.545202 27.164 0.875798C28.7067 1.16966 30.3597 1.68392 32.1229 2.41858V11.0141C29.0006 9.50802 25.713 8.755 22.2601 8.755C19.8725 8.755 17.742 9.34272 15.8686 10.5182C14.032 11.6569 12.5994 13.2364 11.5709 15.2567C10.5423 17.277 10.0281 19.5545 10.0281 22.089C10.0281 26.1296 11.075 29.3805 13.1687 31.8416C15.2992 34.266 18.2379 35.4782 21.9846 35.4782C23.7478 35.4782 25.4742 35.221 27.164 34.7068C28.8537 34.1558 30.6352 33.3844 32.5086 32.3926L35.4289 40.4922C33.2983 41.5942 31.0576 42.4207 28.7067 42.9717C26.3558 43.5594 24.1151 43.8533 21.9846 43.8533ZM55.9749 43.8533C52.375 43.8533 49.3262 43.137 46.8284 41.7044C44.3305 40.2351 42.4388 38.2515 41.1532 35.7537C39.9042 33.2558 39.2798 30.4458 39.2798 27.3235C39.2798 24.2379 39.9042 21.4462 41.1532 18.9484C42.4388 16.4505 44.3305 14.4853 46.8284 13.0527C49.3262 11.5834 52.375 10.8488 55.9749 10.8488C59.538 10.8488 62.5684 11.5834 65.0663 13.0527C67.5641 14.4853 69.4375 16.4505 70.6864 18.9484C71.9353 21.4462 72.5598 24.2379 72.5598 27.3235C72.5598 30.4458 71.9353 33.2558 70.6864 35.7537C69.4375 38.2515 67.5641 40.2351 65.0663 41.7044C62.5684 43.137 59.538 43.8533 55.9749 43.8533ZM55.9749 35.6986C58.1421 35.6986 59.7767 34.9823 60.8787 33.5497C62.0174 32.1171 62.5868 30.0417 62.5868 27.3235C62.5868 24.642 62.0174 22.5849 60.8787 21.1523C59.7767 19.7198 58.1421 19.0035 55.9749 19.0035C53.7709 19.0035 52.0996 19.7198 50.9608 21.1523C49.8221 22.5849 49.2528 24.642 49.2528 27.3235C49.2528 30.0417 49.8221 32.1171 50.9608 33.5497C52.0996 34.9823 53.7709 35.6986 55.9749 35.6986ZM124.95 14.2098C123.003 12.1161 120.046 11.0692 116.079 11.0692C114.205 11.0692 112.479 11.4549 110.899 12.2263C109.357 12.9609 107.759 14.1364 106.106 15.7526C104.306 12.6303 100.963 11.0692 96.0777 11.0692C94.5349 11.0692 93.1023 11.3263 91.78 11.8406C90.4943 12.3181 89.2086 13.0895 87.923 14.1547V11.7304H79.8209V11.6761H78.4432L78.4098 11.7304H78.3357V11.8507L73.6226 19.5094H78.3357V42.9166H87.923V22.089C89.98 20.3993 91.982 19.5545 93.9288 19.5545C95.5451 19.5545 96.6838 19.9585 97.345 20.7666C98.0062 21.538 98.3368 22.6768 98.3368 24.1828V42.9166H107.924V24.1828C107.924 23.2645 107.906 22.6033 107.869 22.1992C109.926 20.4361 111.946 19.5545 113.93 19.5545C115.546 19.5545 116.685 19.9585 117.346 20.7666C118.007 21.538 118.338 22.6768 118.338 24.1828V42.9166H127.925V24.1828C127.925 19.6279 126.933 16.3036 124.95 14.2098ZM173.115 11.0692C177.082 11.0692 180.039 12.1161 181.986 14.2098C183.97 16.3036 184.961 19.6279 184.961 24.1828V42.9166H175.374V24.1828C175.374 22.6768 175.044 21.538 174.382 20.7666C173.721 19.9585 172.583 19.5545 170.966 19.5545C168.983 19.5545 166.962 20.4361 164.905 22.1992C164.942 22.6033 164.96 23.2645 164.96 24.1828V42.9166H155.373V24.1828C155.373 22.6768 155.043 21.538 154.381 20.7666C153.72 19.9585 152.581 19.5545 150.965 19.5545C149.018 19.5545 147.016 20.3993 144.959 22.089V42.9166H135.372V19.5094H130.468L135.289 11.6761H136.667V11.7304H144.959V14.1547C146.245 13.0895 147.531 12.3181 148.816 11.8406C150.139 11.3263 151.571 11.0692 153.114 11.0692C158 11.0692 161.342 12.6303 163.142 15.7526C164.795 14.1364 166.393 12.9609 167.936 12.2263C169.515 11.4549 171.242 11.0692 173.115 11.0692ZM221.416 21.3176V31.8416C221.416 33.0538 221.618 33.917 222.022 34.4313C222.426 34.9088 223.161 35.1476 224.226 35.1476C225.438 35.1476 226.522 35.0006 227.477 34.7068V42.8615C226.228 43.1186 225.162 43.3023 224.281 43.4125C223.436 43.5594 222.518 43.6329 221.526 43.6329C218.257 43.6329 215.814 42.9166 214.198 41.484C212.618 40.0514 211.828 37.9944 211.828 35.3129V21.3176H207.531V12.8323H211.828V2.36348H221.416V12.8323H228.468L224.23 21.3176H221.416ZM245.683 31.8416V21.3176H248.497L252.736 12.8323H245.683V2.36348H236.096V12.8323H231.798V21.3176H236.096V35.3129C236.096 37.9944 236.886 40.0514 238.465 41.484C240.081 42.9166 242.524 43.6329 245.793 43.6329C246.785 43.6329 247.703 43.5594 248.548 43.4125C249.43 43.3023 250.495 43.1186 251.744 42.8615V34.7068C250.789 35.0006 249.705 35.1476 248.493 35.1476C247.428 35.1476 246.693 34.9088 246.289 34.4313C245.885 33.917 245.683 33.0538 245.683 31.8416ZM266.644 30.2988C267.049 32.062 267.875 33.4395 269.124 34.4313C270.41 35.4231 272.283 35.919 274.744 35.919C276.177 35.919 277.536 35.7537 278.821 35.4231C280.144 35.0557 281.65 34.4496 283.34 33.6048L285.819 40.9881C283.909 42.0533 282.017 42.788 280.144 43.1921C278.27 43.6329 276.03 43.8533 273.422 43.8533C269.785 43.8533 266.681 43.1737 264.11 41.8146C261.575 40.4187 259.647 38.4719 258.324 35.9741C257.002 33.4762 256.341 30.5743 256.341 27.2684C256.341 23.8155 257.02 20.8585 258.38 18.3974C259.739 15.8995 261.575 14.0262 263.89 12.7772C266.204 11.4916 268.793 10.8488 271.659 10.8488C276.25 10.8488 279.85 12.1895 282.458 14.871C285.066 17.5158 286.37 21.3911 286.37 26.497V30.2988H266.644ZM271.659 18.7831C270.336 18.7831 269.253 19.1137 268.408 19.7749C267.6 20.4361 267.03 21.5748 266.7 23.191H276.287C276.14 21.6482 275.681 20.5279 274.909 19.83C274.175 19.132 273.091 18.7831 271.659 18.7831ZM302.754 34.4313C301.505 33.4395 300.678 32.062 300.274 30.2988H320V26.497C320 21.3911 318.696 17.5158 316.088 14.871C313.48 12.1895 309.88 10.8488 305.288 10.8488C302.423 10.8488 299.834 11.4916 297.519 12.7772C295.205 14.0262 293.369 15.8995 292.01 18.3974C290.65 20.8585 289.971 23.8155 289.971 27.2684C289.971 30.5743 290.632 33.4762 291.954 35.9741C293.277 38.4719 295.205 40.4187 297.74 41.8146C300.311 43.1737 303.415 43.8533 307.052 43.8533C309.66 43.8533 311.9 43.6329 313.774 43.1921C315.647 42.788 317.539 42.0533 319.449 40.9881L316.97 33.6048C315.28 34.4496 313.774 35.0557 312.451 35.4231C311.166 35.7537 309.807 35.919 308.374 35.919C305.913 35.919 304.04 35.4231 302.754 34.4313ZM302.038 19.7749C302.882 19.1137 303.966 18.7831 305.288 18.7831C306.721 18.7831 307.805 19.132 308.539 19.83C309.311 20.5279 309.77 21.6482 309.917 23.191H300.33C300.66 21.5748 301.229 20.4361 302.038 19.7749Z" fill="white"/>
</svg>
