<svg width="16" height="18" viewBox="0 0 16 18" fill="none" xmlns="http://www.w3.org/2000/svg">
<path fill-rule="evenodd" clip-rule="evenodd" d="M1.94802 5.52777C2.57822 2.69165 5.09504 0.673584 8.00045 0.673584C10.9059 0.673584 13.4218 2.69165 14.052 5.52777C14.4002 7.09484 14.7848 8.25202 15.142 9.3271C15.4518 10.2593 15.741 11.1297 15.9683 12.1521C16.0558 12.5464 15.9599 12.9595 15.7072 13.2748C15.4541 13.5901 15.0721 13.7735 14.668 13.7735H1.33203C0.927889 13.7735 0.545951 13.5901 0.292805 13.2748C0.0401024 12.9595 -0.0558188 12.5464 0.0316721 12.1521L1.94802 5.52777ZM7.99999 17.3265C6.43492 17.3265 5.13855 16.1678 4.92271 14.6618H11.0773C10.8614 16.1678 9.56505 17.3265 7.99999 17.3265Z" fill="white"/>
</svg>
