<svg width="17" height="17" viewBox="0 0 17 17" fill="none" xmlns="http://www.w3.org/2000/svg">
<path d="M6.89768 7.54011C8.83535 7.54011 10.4061 5.96932 10.4061 4.03165C10.4061 2.09398 8.83535 0.523193 6.89768 0.523193C4.96001 0.523193 3.38922 2.09398 3.38922 4.03165C3.38922 5.96932 4.96001 7.54011 6.89768 7.54011Z" fill="white"/>
<path d="M8.67577 15.1184C8.31019 14.4854 8.38316 13.7059 8.81821 13.1536C8.38316 12.6014 8.31019 11.8225 8.67577 11.1889L9.24344 10.2065C9.55569 9.66552 10.1381 9.32941 10.7633 9.32941C10.8489 9.32941 10.9331 9.33573 11.0166 9.34766C11.0398 9.29012 11.0692 9.23609 11.098 9.18135C10.7191 9.03189 10.31 8.94348 9.87987 8.94348H3.91549C2.07776 8.94348 0.582458 10.4388 0.582458 12.2765V14.7324C0.582458 15.0229 0.818227 15.2587 1.10873 15.2587H8.75646L8.67577 15.1184Z" fill="white"/>
<path d="M15.8113 13.4827C15.8253 13.3739 15.8443 13.2659 15.8443 13.1536C15.8443 13.0406 15.8246 12.9333 15.8113 12.8245L16.4435 12.346C16.5845 12.2393 16.6238 12.0442 16.5354 11.8906L15.9677 10.9082C15.8793 10.7552 15.6906 10.6914 15.5278 10.7601L14.8001 11.0668C14.6226 10.9313 14.4339 10.8121 14.2254 10.725L14.1286 9.95248C14.1062 9.77706 13.9574 9.64514 13.7806 9.64514H12.6459C12.4691 9.64514 12.3197 9.77706 12.2979 9.95248L12.2011 10.725C11.9927 10.8121 11.8032 10.932 11.6264 11.0668L10.8987 10.7601C10.7359 10.6914 10.5472 10.7545 10.4588 10.9082L9.8911 11.8906C9.80269 12.0435 9.84198 12.2386 9.98302 12.346L10.6152 12.8245C10.6012 12.9333 10.5823 13.0413 10.5823 13.1536C10.5823 13.2666 10.6019 13.3739 10.6152 13.4827L9.98302 13.9612C9.84198 14.0679 9.80269 14.263 9.8911 14.4166L10.4588 15.3997C10.5472 15.5527 10.7359 15.6165 10.8987 15.5478L11.6264 15.2404C11.8039 15.3759 11.9927 15.4951 12.2011 15.5822L12.2979 16.3547C12.3197 16.5301 12.4684 16.6621 12.6452 16.6621H13.7799C13.9567 16.6621 14.1062 16.5301 14.1279 16.3547L14.2247 15.5822C14.4331 15.4951 14.6226 15.3752 14.7994 15.2404L15.5271 15.5471C15.6899 15.6158 15.8786 15.5527 15.967 15.399L16.5347 14.4159C16.6231 14.263 16.5838 14.0679 16.4428 13.9605L15.8113 13.4827ZM13.2129 14.557C12.4375 14.557 11.8095 13.929 11.8095 13.1536C11.8095 12.3782 12.4375 11.7502 13.2129 11.7502C13.9883 11.7502 14.6163 12.3782 14.6163 13.1536C14.6163 13.929 13.9883 14.557 13.2129 14.557Z" fill="white"/>
</svg>
