<svg width="16" height="14" viewBox="0 0 16 14" fill="none" xmlns="http://www.w3.org/2000/svg">
<path d="M12.5161 13.0911H3.48387C3.19884 13.0911 2.96774 12.86 2.96774 12.575V11.0469C2.96774 10.319 3.39723 9.65684 4.06194 9.36006C5.99516 8.49684 5.88919 8.52603 6.03984 8.52603H6.65329C6.89084 8.52603 7.09771 8.68816 7.15448 8.91884C7.37084 9.79806 8.6291 9.79848 8.84555 8.91884C8.90232 8.68819 9.10919 8.52603 9.34674 8.52603C10.0069 8.52603 10.0408 8.51294 10.1706 8.57087L11.9381 9.36006C12.6028 9.65684 13.0323 10.319 13.0323 11.0469V12.575C13.0323 12.86 12.8012 13.0911 12.5161 13.0911ZM8.01261 0.908936C6.27423 0.908936 4.85997 2.32319 4.85997 4.06158C4.85997 5.79997 6.27423 7.21423 8.01261 7.21423C9.751 7.21423 11.1653 5.79997 11.1653 4.06158C11.1653 2.32319 9.751 0.908936 8.01261 0.908936ZM3.03929 4.28106C1.94474 4.28106 1.05426 5.17155 1.05426 6.26613C1.05426 7.36068 1.94474 8.25116 3.03929 8.25116C4.13387 8.25116 5.02435 7.36068 5.02435 6.26613C5.02432 5.17155 4.13384 4.28106 3.03929 4.28106ZM12.9607 4.28106C11.8661 4.28106 10.9756 5.17155 10.9756 6.26613C10.9756 7.36068 11.8661 8.25116 12.9607 8.25116C14.0553 8.25116 14.9457 7.36068 14.9457 6.26613C14.9457 5.17155 14.0553 4.28106 12.9607 4.28106ZM15.2548 9.00939C14.1809 8.52977 14.2066 8.52487 14.0597 8.52487C13.2909 8.52487 12.7879 8.51948 12.4477 8.51781C12.1096 8.51613 11.9976 8.96964 12.2972 9.12635C12.5425 9.25468 12.6915 9.36413 12.8684 9.55716C13.3846 10.1178 13.4327 10.7112 13.4326 11.2032C13.4326 11.3814 13.5769 11.5255 13.7551 11.5255H15.4839C15.769 11.5255 16 11.2943 16 11.0094V10.1581C16 9.66229 15.7074 9.21165 15.2548 9.00939ZM1.94032 8.52487C1.79406 8.52487 1.82284 8.5281 0.745161 9.00939C0.292581 9.21165 0 9.66229 0 10.1581V11.0094C0 11.2942 0.230968 11.5255 0.516129 11.5255H2.24477C2.42303 11.5255 2.56748 11.3811 2.56726 11.2029C2.56668 10.7092 2.61335 10.12 3.13161 9.55713C3.30765 9.36503 3.45784 9.25461 3.69774 9.12858C3.99674 8.97152 3.88626 8.51932 3.54852 8.5199C3.20629 8.52048 2.70342 8.52487 1.94032 8.52487Z" fill="white"/>
</svg>
