<svg width="16" height="16" viewBox="0 0 16 16" fill="none" xmlns="http://www.w3.org/2000/svg">
<path d="M15.9513 7.11881C15.8794 6.4538 15.3205 5.95311 14.6526 5.95311L14.181 5.96695C14.0785 5.65662 13.9528 5.35359 13.7915 5.10213L14.1497 4.74387C14.6221 4.27436 14.6592 3.52005 14.2362 2.98951C13.8743 2.53749 13.4622 2.12543 13.0095 1.76345C12.4804 1.34045 11.7268 1.37684 11.2558 1.84918L10.9346 2.19293C10.6461 2.04684 10.3431 1.92115 10.0465 1.85715V1.347C10.0465 0.679089 9.54576 0.120274 8.88224 0.0483108C8.30519 -0.0156153 7.69324 -0.0156153 7.11917 0.0483108C6.45416 0.120274 5.95347 0.679163 5.95347 1.347L5.96731 1.81867C5.65698 1.92115 5.35395 2.04684 5.10248 2.20818L4.74423 1.84993C4.27472 1.37751 3.5204 1.34045 2.98987 1.76345C2.53785 2.12535 2.12579 2.53741 1.76381 2.99018C1.34081 3.51997 1.37787 4.27436 1.84954 4.7438L2.19329 5.06499C2.0472 5.35351 1.92151 5.65655 1.85751 5.95311H1.34736C0.679448 5.95311 0.120634 6.45388 0.0486702 7.1174C0.0166699 7.40592 0 7.70025 0 7.99964C0 8.29903 0.0167443 8.59343 0.0486702 8.88047C0.120634 9.54548 0.679523 10.0462 1.34736 10.0462L1.81903 10.0323C1.92151 10.3427 2.0472 10.6457 2.20854 10.8972L1.85029 11.2554C1.37787 11.7249 1.34081 12.4792 1.76381 13.0098C2.12571 13.4618 2.53777 13.8739 2.99054 14.2358C3.51959 14.6581 4.27323 14.6224 4.74416 14.1501L5.06535 13.8064C5.35387 13.9524 5.65691 14.0781 5.95347 14.1421V14.6523C5.95347 15.3202 6.45424 15.879 7.11776 15.951C7.40628 15.983 7.70061 15.9996 8 15.9996C8.29939 15.9996 8.59379 15.9829 8.88083 15.951C9.54584 15.879 10.0465 15.3201 10.0465 14.6523L10.0327 14.1806C10.343 14.0781 10.6461 13.9524 10.8975 13.7911L11.2558 14.1494C11.7253 14.621 12.4796 14.6581 13.0101 14.2358C13.4629 13.8739 13.875 13.4604 14.2362 13.0091C14.6599 12.4801 14.6228 11.7257 14.1505 11.2562L13.8067 10.9342C13.9528 10.6464 14.0785 10.3434 14.1432 10.0461H14.6526C15.3206 10.0461 15.8794 9.54533 15.9513 8.88181C15.9833 8.59328 16 8.29895 16 7.99957C16 7.70018 15.9833 7.40585 15.9513 7.11881ZM10.3299 10.2177C10.0735 10.9877 9.36559 11.507 8.55807 11.5302V12.0928C8.55807 12.4009 8.3081 12.6509 7.99993 12.6509C7.69175 12.6509 7.44178 12.4009 7.44178 12.0928V11.5151C6.60188 11.4203 5.88255 10.8536 5.60965 10.0368C5.51224 9.74462 5.67068 9.42849 5.96285 9.33041C6.25792 9.23448 6.57041 9.39143 6.66923 9.6836C6.81532 10.1233 7.22522 10.4183 7.68811 10.4183H8.50278C8.85165 10.4183 9.16049 10.196 9.27019 9.86459C9.41188 9.44159 9.18222 8.98235 8.75856 8.84132L6.88788 8.21776C5.88061 7.88131 5.33408 6.78824 5.66986 5.78172C5.92631 5.01171 6.63418 4.49241 7.44171 4.46919V3.90665C7.44171 3.59848 7.69168 3.34851 7.99985 3.34851C8.30802 3.34851 8.558 3.59848 8.558 3.90665V4.4843C9.39789 4.57911 10.1172 5.14581 10.3901 5.96264C10.4875 6.25481 10.3291 6.57094 10.0369 6.66902C9.7397 6.76279 9.42788 6.60726 9.33054 6.31583C9.18446 5.87616 8.77456 5.58109 8.31167 5.58109H7.497C7.14812 5.58109 6.83928 5.80345 6.72959 6.13484C6.58789 6.55784 6.81755 7.01708 7.24122 7.15811L9.1119 7.78167C10.1192 8.11812 10.6657 9.21119 10.3299 10.2177Z" fill="white"/>
</svg>
