<svg width="18" height="23" viewBox="0 0 18 23" fill="none" xmlns="http://www.w3.org/2000/svg">
<path d="M17.441 15.9218C16.0803 14.7715 15.3 13.0903 15.3 11.3092V8.80005C15.3 5.63303 12.9474 3.01131 9.90002 2.57214V1.60002C9.90002 1.10234 9.49677 0.700073 8.99992 0.700073C8.50323 0.700073 8.09998 1.10234 8.09998 1.60002V2.57214C5.05161 3.01131 2.69999 5.63303 2.69999 8.80005V11.3092C2.69999 13.0903 1.91969 14.7715 0.550743 15.9289C0.20072 16.2287 0 16.6642 0 17.125C0 17.9936 0.706474 18.7001 1.57494 18.7001H16.4249C17.2935 18.7001 18 17.9936 18 17.125C18 16.6642 17.7993 16.2287 17.441 15.9218Z" fill="#9AA1AE"/>
<path d="M8.998 22.3001C10.628 22.3001 11.9915 21.1381 12.3046 19.6001H5.69141C6.00468 21.1381 7.36819 22.3001 8.998 22.3001Z" fill="#9AA1AE"/>
</svg>
