<svg width="100" height="101" viewBox="0 0 100 101" fill="none" xmlns="http://www.w3.org/2000/svg">
<path d="M93.1818 81.8195H77.2727C67.2474 81.8195 59.091 73.6631 59.091 63.6378C59.091 53.6126 67.2474 45.4561 77.2727 45.4561H93.1818C94.4381 45.4561 95.4546 44.4395 95.4546 43.1833V36.3651C95.4546 31.5992 91.7579 27.7233 87.0872 27.3475L74.0347 4.5492C72.8251 2.44068 70.8719 0.933649 68.5348 0.307869C66.2087 -0.31365 63.7763 0.0127702 61.6944 1.22449L16.9496 27.2742H9.09097C4.07727 27.2742 0 31.3512 0 36.3651V90.9105C0 95.9242 4.07705 100.001 9.09097 100.001H86.3637C91.3774 100.001 95.4546 95.9244 95.4546 90.9105V84.0923C95.4546 82.8361 94.4381 81.8195 93.1818 81.8195ZM76.8534 18.6245L81.8055 27.2742H61.9964L76.8534 18.6245ZM25.9836 27.2742L63.9826 5.15282C65.0102 4.55133 66.2108 4.39153 67.3584 4.69792C68.5192 5.00857 69.487 5.75878 70.0885 6.80857L70.0932 6.81688L34.9561 27.2742H25.9836Z" fill="white"/>
<path d="M93.1822 50.001H77.2731C69.7535 50.001 63.6367 56.1177 63.6367 63.6373C63.6367 71.1569 69.7535 77.2737 77.2731 77.2737H93.1822C96.942 77.2737 100 74.2153 100 70.4555V56.8192C100 53.0594 96.942 50.001 93.1822 50.001ZM77.2731 68.1827C74.7674 68.1827 72.7277 66.143 72.7277 63.6373C72.7277 61.1316 74.7674 59.0919 77.2731 59.0919C79.7787 59.0919 81.8184 61.1316 81.8184 63.6373C81.8186 66.143 79.779 68.1827 77.2731 68.1827Z" fill="white"/>
</svg>
