<svg width="15" height="15" viewBox="0 0 15 15" fill="none" xmlns="http://www.w3.org/2000/svg">
<g clip-path="url(#clip0_387_488)">
<path d="M13.9517 6.22727H9.17894V1.45455C9.17894 0.927635 8.7513 0.5 8.22439 0.5H7.58807C7.06116 0.5 6.63352 0.927635 6.63352 1.45455V6.22727H1.8608C1.33388 6.22727 0.90625 6.65491 0.90625 7.18182V7.81814C0.90625 8.34505 1.33388 8.77269 1.8608 8.77269H6.63352V13.5454C6.63352 14.0723 7.06116 14.5 7.58807 14.5H8.22439C8.7513 14.5 9.17894 14.0723 9.17894 13.5454V8.77269H13.9517C14.4786 8.77269 14.9062 8.34505 14.9062 7.81814V7.18182C14.9062 6.65491 14.4786 6.22727 13.9517 6.22727Z" fill="#BAC0CF"/>
</g>
<defs>
<clipPath id="clip0_387_488">
<rect width="14" height="14" fill="white" transform="translate(0.90625 0.5)"/>
</clipPath>
</defs>
</svg>
