<svg width="12" height="15" viewBox="0 0 12 15" fill="none" xmlns="http://www.w3.org/2000/svg">
<path d="M11.1306 4.50107V4.0685C11.1306 1.92161 9.38414 0.175232 7.23729 0.175232C5.09044 0.175232 3.34402 1.92161 3.34402 4.0685V7.09659H0.748535V8.82694H3.24203C3.03926 10.1971 2.53663 11.5066 1.75903 12.6729C1.58201 12.9382 1.56555 13.2795 1.71595 13.5609C1.86676 13.8422 2.15993 14.0179 2.47888 14.0179H10.2654V12.2876H3.96755C4.49414 11.1972 4.83183 10.0297 4.98175 8.82694H7.66986V7.09659H5.07437V4.0685C5.07437 2.87593 6.04472 1.90558 7.23729 1.90558C8.42986 1.90558 9.40021 2.87593 9.40021 4.0685V4.50107H11.1306Z" fill="#52514C"/>
</svg>
