<svg width="13" height="17" viewBox="0 0 13 17" fill="none" xmlns="http://www.w3.org/2000/svg">
<path d="M13 5.70163V5.18809C13 2.63932 10.9267 0.566032 8.37796 0.566032C5.82923 0.566032 3.75591 2.63932 3.75591 5.18809V8.78301H0.674561V10.8373H3.63481C3.39409 12.464 2.79738 14.0185 1.87421 15.4031C1.66406 15.7181 1.64451 16.1233 1.82307 16.4573C2.00211 16.7914 2.35016 17 2.72881 17H11.9729V14.9457H4.49615C5.12131 13.6512 5.52222 12.2652 5.70019 10.8373H8.8915V8.78301H5.81016V5.18809C5.81016 3.77228 6.96215 2.62029 8.37796 2.62029C9.79377 2.62029 10.9458 3.77228 10.9458 5.18809V5.70163H13Z" fill="#0B1F50"/>
</svg>
