<svg width="100" height="100" viewBox="0 0 100 100" fill="none" xmlns="http://www.w3.org/2000/svg">
<g clip-path="url(#clip0_316_92)">
<path d="M2.09253 97.9075C3.48765 99.3026 5.31518 100 7.14272 100C8.97026 100 10.7978 99.3026 12.1929 97.9075L50 60.1005L87.8068 97.9073C89.2019 99.3024 91.0294 99.9999 92.857 99.9999C94.6845 99.9999 96.5121 99.3024 97.9072 97.9073C100.697 95.1171 100.697 90.597 97.9072 87.8069L60.1003 50.0001L97.9074 12.1933C100.698 9.40303 100.698 4.88291 97.9074 2.09287C95.1207 -0.697363 90.5937 -0.697363 87.807 2.09287L50 39.8997L12.1931 2.09268C9.4064 -0.697559 4.87944 -0.697559 2.09272 2.09268C-0.69751 4.88291 -0.69751 9.40303 2.09253 12.1931L39.8996 50.0001L2.09253 87.8069C-0.69751 90.5972 -0.69751 95.1173 2.09253 97.9075Z" fill="white"/>
</g>
<defs>
<clipPath id="clip0_316_92">
<rect width="100" height="100" fill="white"/>
</clipPath>
</defs>
</svg>
