<svg width="8" height="14" viewBox="0 0 8 14" fill="none" xmlns="http://www.w3.org/2000/svg">
<path d="M7.78279 6.53801L1.72295 0.478284C1.5828 0.338017 1.3957 0.260742 1.1962 0.260742C0.996706 0.260742 0.809609 0.338017 0.669453 0.478284L0.223188 0.924438C-0.0671998 1.21516 -0.0671998 1.68766 0.223188 1.97794L5.31178 7.06653L0.217542 12.1608C0.0773851 12.301 0 12.488 0 12.6874C0 12.887 0.0773851 13.074 0.217542 13.2144L0.663807 13.6604C0.804074 13.8007 0.99106 13.878 1.19056 13.878C1.39005 13.878 1.57715 13.8007 1.71731 13.6604L7.78279 7.59516C7.92328 7.45445 8.00044 7.26658 8 7.06686C8.00044 6.86637 7.92328 6.67861 7.78279 6.53801Z" fill="#737B8B"/>
</svg>
