<svg width="86" height="85" viewBox="0 0 86 85" fill="none" xmlns="http://www.w3.org/2000/svg">
<path fill-rule="evenodd" clip-rule="evenodd" d="M85.5 42.5C85.5 65.9721 66.4721 85 43 85C19.5279 85 0.5 65.9721 0.5 42.5C0.5 19.0279 19.5279 0 43 0C66.4721 0 85.5 19.0279 85.5 42.5ZM43.0001 61.2793C42.2137 61.2793 41.4595 60.9669 40.9034 60.4108C40.3474 59.8547 40.035 59.1006 40.035 58.3142V45.4652H27.1863C26.3999 45.4652 25.6457 45.1528 25.0896 44.5967C24.5335 44.0407 24.2211 43.2865 24.2211 42.5001C24.2211 41.7137 24.5335 40.9595 25.0896 40.4034C25.6457 39.8474 26.3999 39.535 27.1863 39.535H40.035V26.6863C40.035 25.8999 40.3474 25.1457 40.9034 24.5896C41.4595 24.0335 42.2137 23.7211 43.0001 23.7211C43.7865 23.7211 44.5407 24.0335 45.0967 24.5896C45.6528 25.1457 45.9652 25.8999 45.9652 26.6863V39.535H58.8142C59.6006 39.535 60.3548 39.8474 60.9108 40.4034C61.4669 40.9595 61.7793 41.7137 61.7793 42.5001C61.7793 43.2865 61.4669 44.0407 60.9108 44.5967C60.3548 45.1528 59.6006 45.4652 58.8142 45.4652H45.9652V58.3142C45.9652 59.1006 45.6528 59.8547 45.0967 60.4108C44.5407 60.9669 43.7865 61.2793 43.0001 61.2793Z" fill="#D7DBDD"/>
</svg>
