<svg width="18" height="19" viewBox="0 0 18 19" fill="none" xmlns="http://www.w3.org/2000/svg">
<path d="M17.7344 16.9593L15.1932 14.427C16.5708 12.7251 17.2428 10.5594 17.0707 8.37658C16.8986 6.19373 15.8954 4.16015 14.2681 2.69517C12.6407 1.23019 10.5132 0.445516 8.32437 0.502944C6.13551 0.560372 4.05212 1.45553 2.50382 3.00382C0.955527 4.55212 0.0603717 6.63551 0.00294371 8.82437C-0.0544843 11.0132 0.730193 13.1407 2.19517 14.7681C3.66015 16.3954 5.69373 17.3986 7.87658 17.5707C10.0594 17.7428 12.2251 17.0708 13.927 15.6932L16.4593 18.2344C16.5428 18.3185 16.6421 18.3854 16.7515 18.4309C16.8609 18.4765 16.9783 18.5 17.0968 18.5C17.2154 18.5 17.3327 18.4765 17.4422 18.4309C17.5516 18.3854 17.6509 18.3185 17.7344 18.2344C17.8185 18.1509 17.8854 18.0516 17.9309 17.9422C17.9765 17.8327 18 17.7154 18 17.5968C18 17.4783 17.9765 17.3609 17.9309 17.2515C17.8854 17.1421 17.8185 17.0428 17.7344 16.9593ZM1.83152 9.06622C1.83152 7.73422 2.2265 6.43213 2.96652 5.32462C3.70654 4.2171 4.75835 3.3539 5.98896 2.84416C7.21956 2.33443 8.57369 2.20106 9.88009 2.46092C11.1865 2.72078 12.3865 3.3622 13.3284 4.30406C14.2702 5.24593 14.9116 6.44594 15.1715 7.75234C15.4314 9.05874 15.298 10.4129 14.7883 11.6435C14.2785 12.8741 13.4153 13.9259 12.3078 14.6659C11.2003 15.4059 9.89821 15.8009 8.56622 15.8009C6.78006 15.8009 5.06706 15.0914 3.80406 13.8284C2.54106 12.5654 1.83152 10.8524 1.83152 9.06622Z" fill="#9AA1AE"/>
</svg>
