<svg width="18" height="18" viewBox="0 0 18 18" fill="none" xmlns="http://www.w3.org/2000/svg">
<g clip-path="url(#clip0_2286_20)">
<path d="M17.7894 8.69246C17.7887 8.49647 17.6766 8.31804 17.5002 8.23278L0.933702 0.304229C0.73864 0.210655 0.505857 0.250645 0.353263 0.403873C0.200537 0.55697 0.16097 0.789782 0.254611 0.984848L3.71522 8.18289L8.60036 8.18262C8.87864 8.18685 9.10192 8.41372 9.10192 8.6922C9.10192 8.97068 8.87864 9.19755 8.60036 9.20177L3.71536 9.20218L0.254345 16.4006C0.160836 16.5953 0.200271 16.8277 0.35247 16.9808C0.505064 17.1337 0.73811 17.1743 0.93304 17.0811L17.4996 9.15241C17.6762 9.06728 17.7887 8.88872 17.7894 8.69246Z" fill="#444139"/>
</g>
<defs>
<clipPath id="clip0_2286_20">
<rect width="18" height="18" fill="white"/>
</clipPath>
</defs>
</svg>
