<svg width="214" height="384" viewBox="0 0 214 384" fill="grey" xmlns="http://www.w3.org/2000/svg">
<path fill-rule="evenodd" clip-rule="evenodd" d="M121.752 377.751C113.421 386.082 99.9127 386.082 91.582 377.751L6.24868 292.418C0.147348 286.317 -1.67665 277.141 1.62362 269.169C4.92602 261.197 12.7063 256 21.3335 256H74.6668C80.5591 256 85.3335 251.223 85.3335 245.333V21.3333C85.3335 9.55136 94.8844 0 106.667 0C118.449 0 128 9.55136 128 21.3333V245.333C128 251.223 132.777 256 138.667 256H192C200.629 256 208.408 261.197 211.71 269.169C215.012 277.141 213.186 286.317 207.085 292.418L121.752 377.751Z" fill="grey"/>
</svg>
