<svg width="100" height="100" viewBox="0 0 100 100" fill="grey" xmlns="http://www.w3.org/2000/svg">
<path d="M94.6127 63.721C93.8314 62.9399 92.7718 62.5011 91.6669 62.5011C90.5621 62.5011 89.5024 62.9399 88.7211 63.721L75.0002 77.4418V12.5002C75.0002 11.3951 74.5612 10.3353 73.7798 9.55388C72.9984 8.77248 71.9386 8.3335 70.8336 8.3335C69.7285 8.3335 68.6687 8.77248 67.8873 9.55388C67.1059 10.3353 66.6669 11.3951 66.6669 12.5002V77.4418L52.9461 63.721C52.1602 62.962 51.1077 62.542 50.0152 62.5515C48.9227 62.561 47.8777 62.9992 47.1052 63.7718C46.3326 64.5443 45.8944 65.5893 45.8849 66.6818C45.8754 67.7743 46.2954 68.8268 47.0544 69.6127L67.8877 90.446C68.2748 90.834 68.7346 91.1419 69.2408 91.3519C69.747 91.562 70.2897 91.6701 70.8377 91.6701C71.3858 91.6701 71.9285 91.562 72.4347 91.3519C72.9409 91.1419 73.4007 90.834 73.7877 90.446L94.6211 69.6127C95.4011 68.8302 95.8384 67.77 95.8369 66.6651C95.8353 65.5603 95.395 64.5013 94.6127 63.721Z" fill="grey"/>
<path d="M52.9458 30.3875L32.1125 9.55414C31.7244 9.16531 31.2626 8.85791 30.7541 8.64997C29.7349 8.22865 28.5901 8.22865 27.5708 8.64997C27.0623 8.85791 26.6005 9.16531 26.2125 9.55414L5.37914 30.3875C4.59786 31.1699 4.15938 32.2306 4.16016 33.3363C4.16094 34.4419 4.60092 35.502 5.38331 36.2833C6.1657 37.0646 7.2264 37.5031 8.33209 37.5023C9.43777 37.5015 10.4979 37.0615 11.2791 36.2791L25 22.5583V87.5C25 88.605 25.439 89.6649 26.2204 90.4463C27.0018 91.2277 28.0616 91.6666 29.1666 91.6666C30.2717 91.6666 31.3315 91.2277 32.1129 90.4463C32.8943 89.6649 33.3333 88.605 33.3333 87.5V22.5583L47.0541 36.2791C47.84 37.0381 48.8925 37.4581 49.985 37.4486C51.0775 37.4391 52.1225 37.0009 52.895 36.2284C53.6676 35.4559 54.1058 34.4108 54.1153 33.3183C54.1248 32.2258 53.7048 31.1733 52.9458 30.3875Z" fill="grey"/>
</svg>
