<svg width="10" height="10" viewBox="0 0 10 10" fill="none" xmlns="http://www.w3.org/2000/svg">
<path d="M4.38267 0.624998V7.49122L1.07455 4.18315C1.0169 4.12341 0.947934 4.07583 0.871684 4.04304C0.795428 4.01031 0.713417 3.99306 0.63043 3.99237C0.547443 3.99162 0.465143 4.00743 0.388333 4.03885C0.311523 4.07026 0.241741 4.11667 0.183058 4.17538C0.124375 4.23409 0.077967 4.30387 0.0465413 4.38067C0.0151159 4.45746 -0.000697536 4.53975 2.35981e-05 4.62273C0.000744732 4.70571 0.0179862 4.78773 0.0507417 4.86397C0.0834972 4.94028 0.131111 5.00924 0.190805 5.06685L4.5658 9.44184C4.683 9.55906 4.84194 9.62485 5.00767 9.62485C5.17339 9.62485 5.33234 9.55906 5.44955 9.44184L9.82453 5.06685C9.93838 4.94902 10.0014 4.7911 9.99998 4.62727C9.99853 4.46337 9.93281 4.30662 9.8169 4.19071C9.70106 4.07487 9.54431 4.00915 9.38041 4.0077C9.21651 4.00626 9.05866 4.0693 8.94076 4.18315L5.63267 7.49122V0.624998C5.63267 0.459175 5.56682 0.300228 5.44961 0.183011C5.3324 0.0657937 5.17343 0 5.00767 0C4.84191 0 4.68294 0.0657937 4.56573 0.183011C4.44852 0.300228 4.38267 0.459175 4.38267 0.624998Z" fill="#A8AEB9"/>
</svg>
