<svg width="100" height="67" viewBox="0 0 100 67" fill="none" xmlns="http://www.w3.org/2000/svg">
<path d="M14.2257 25.0001H62.5002C64.8014 25.0001 66.6669 23.1347 66.6669 20.8335C66.6669 18.5323 64.8014 16.6668 62.5002 16.6668H14.2257L23.7795 7.11302C25.4066 5.48585 25.4066 2.84754 23.7795 1.22038C22.1523 -0.406792 19.514 -0.406792 17.8868 1.22038L1.21984 17.8872C1.12277 17.9842 1.03097 18.0864 0.943859 18.1926C0.904405 18.2407 0.87003 18.2915 0.833115 18.3409C0.788583 18.4003 0.742684 18.4583 0.701278 18.5202C0.661629 18.5794 0.627253 18.6409 0.590925 18.7016C0.557526 18.7575 0.522369 18.8122 0.49151 18.8698C0.458306 18.9317 0.430181 18.9956 0.400493 19.0589C0.372172 19.1188 0.342289 19.1778 0.316703 19.2393C0.291312 19.3009 0.270609 19.3638 0.248343 19.4263C0.22471 19.4921 0.199514 19.5569 0.179201 19.6241C0.160256 19.6866 0.146388 19.7501 0.130568 19.8134C0.113185 19.8819 0.0940441 19.9497 0.0801767 20.0196C0.0657234 20.0929 0.0571296 20.1667 0.0465826 20.2403C0.0379887 20.3011 0.0262698 20.361 0.0202151 20.4226C-0.00673836 20.696 -0.00673836 20.9716 0.0202151 21.245C0.0262698 21.3065 0.0377934 21.3663 0.0465826 21.4273C0.0571296 21.5009 0.0657234 21.5749 0.080372 21.648C0.0942394 21.7179 0.11338 21.7855 0.130763 21.854C0.146584 21.9173 0.160451 21.9808 0.179397 22.0433C0.199709 22.1105 0.224905 22.1755 0.248538 22.2411C0.270999 22.3036 0.291507 22.3665 0.316898 22.428C0.342289 22.4896 0.372368 22.5484 0.400688 22.6083C0.430571 22.6716 0.458697 22.7355 0.4919 22.7976C0.52276 22.855 0.557721 22.9095 0.59112 22.9654C0.627449 23.0263 0.661824 23.0878 0.701473 23.1472C0.742684 23.2089 0.788583 23.2667 0.83292 23.3261C0.87003 23.3757 0.904405 23.4265 0.944054 23.4747C1.03058 23.5802 1.12179 23.6816 1.21808 23.7779C1.21886 23.7786 1.21925 23.7794 1.22003 23.78L17.8868 40.4468C19.514 42.074 22.1523 42.074 23.7795 40.4468C25.4066 38.8196 25.4066 36.1813 23.7795 34.5542L14.2257 25.0001Z" fill="white"/>
<path d="M99.0568 48.4749C99.0967 48.4265 99.131 48.3755 99.1683 48.3257C99.2125 48.2667 99.2584 48.2089 99.2994 48.1474C99.3392 48.088 99.3736 48.0263 99.4099 47.9654C99.4432 47.9097 99.4781 47.8552 99.5088 47.798C99.542 47.7359 99.5703 47.6718 99.6002 47.6083C99.6285 47.5486 99.6582 47.4898 99.6838 47.4284C99.7092 47.3669 99.7299 47.304 99.7521 47.2415C99.7758 47.1757 99.801 47.1109 99.8213 47.0437C99.8402 46.9812 99.8541 46.9175 99.8699 46.8544C99.8873 46.7859 99.9064 46.7181 99.9203 46.6484C99.9348 46.5751 99.9434 46.5013 99.9541 46.4276C99.9627 46.3669 99.9744 46.3071 99.9805 46.2454C100.007 45.972 100.007 45.6964 99.9805 45.4229C99.9744 45.3614 99.9629 45.3017 99.9541 45.2407C99.9436 45.1671 99.935 45.0931 99.9203 45.02C99.9064 44.9501 99.8873 44.8825 99.8699 44.814C99.8541 44.7507 99.8402 44.6872 99.8213 44.6247C99.801 44.5575 99.7758 44.4925 99.7521 44.4268C99.7297 44.3643 99.7092 44.3014 99.6838 44.2399C99.6584 44.1786 99.6285 44.1198 99.6002 44.06C99.5703 43.9966 99.5422 43.9325 99.5088 43.8704C99.4781 43.8132 99.4432 43.7587 99.4099 43.703C99.3736 43.6421 99.3391 43.5803 99.2994 43.521C99.2582 43.4594 99.2125 43.4016 99.1683 43.3426C99.131 43.2928 99.0965 43.2419 99.0568 43.1934C98.9711 43.0889 98.8804 42.9883 98.7849 42.8926C98.7836 42.8911 98.7822 42.8895 98.7808 42.8881L82.114 26.2214C80.4869 24.5942 77.8486 24.5942 76.2214 26.2214C74.5942 27.8485 74.5942 30.4868 76.2214 32.114L85.7752 41.6678H37.5006C35.1994 41.6678 33.334 43.5333 33.334 45.8345C33.334 48.1357 35.1994 50.0011 37.5006 50.0011H85.7752L76.2214 59.5549C74.5942 61.1821 74.5942 63.8204 76.2214 65.4476C77.8486 67.0748 80.4869 67.0748 82.114 65.4476L98.7808 48.7808C98.7824 48.7792 98.7836 48.7777 98.7849 48.7763C98.8804 48.68 98.9711 48.5794 99.0568 48.4749Z" fill="white"/>
</svg>
