<svg width="427" height="384" viewBox="0 0 427 384" fill="none" xmlns="http://www.w3.org/2000/svg">
<path fill-rule="evenodd" clip-rule="evenodd" d="M335.085 377.751C326.754 386.082 313.246 386.082 304.915 377.751L219.582 292.418C213.481 286.317 211.657 277.141 214.957 269.169C218.259 261.197 226.039 256 234.667 256H288C293.892 256 298.667 251.223 298.667 245.333V21.3333C298.667 9.55136 308.218 0 320 0C331.782 0 341.333 9.55136 341.333 21.3333V245.333C341.333 251.223 346.11 256 352 256H405.333C413.963 256 421.741 261.197 425.043 269.169C428.346 277.141 426.519 286.317 420.418 292.418L335.085 377.751ZM121.752 6.24832C113.421 -2.08277 99.9136 -2.08277 91.5823 6.24832L6.24897 91.5817C0.147638 97.683 -1.67743 106.859 1.62454 114.831C4.92651 122.802 12.7055 128 21.334 128H74.6673C80.5583 128 85.334 132.776 85.334 138.667V362.667C85.334 374.449 94.8851 384 106.667 384C118.449 384 128.001 374.449 128.001 362.667V138.667C128.001 132.776 132.776 128 138.667 128H192C200.629 128 208.407 122.802 211.71 114.831C215.012 106.859 213.186 97.683 207.085 91.5817L121.752 6.24832Z" fill="grey"/>
</svg>
