<svg width="13" height="13" viewBox="0 0 13 13" fill="none" xmlns="http://www.w3.org/2000/svg">
<path d="M6.4126 0.462952C3.10433 0.462952 0.412598 3.15468 0.412598 6.46295C0.412598 9.77122 3.10433 12.463 6.4126 12.463C9.72087 12.463 12.4126 9.77122 12.4126 6.46295C12.4126 3.15468 9.72087 0.462952 6.4126 0.462952ZM9.76598 4.884L5.9314 8.68852C5.70583 8.91408 5.34493 8.92912 5.10433 8.70355L3.07425 6.85393C2.83365 6.62837 2.81861 6.25243 3.02914 6.01182C3.2547 5.77122 3.63064 5.75619 3.87124 5.98175L5.48027 7.45543L8.90884 4.02686C9.14944 3.78626 9.52538 3.78626 9.76598 4.02686C10.0066 4.26746 10.0066 4.6434 9.76598 4.884Z" fill="white"/>
</svg>
