<svg width="40" height="40" viewBox="0 0 40 40" fill="none" xmlns="http://www.w3.org/2000/svg">
<path d="M17.3333 18.6667C19.1793 18.6667 20.9838 18.1193 22.5187 17.0937C24.0535 16.0682 25.2498 14.6105 25.9562 12.9051C26.6626 11.1996 26.8475 9.32299 26.4873 7.5125C26.1272 5.70201 25.2383 4.03897 23.933 2.73367C22.6277 1.42838 20.9647 0.53947 19.1542 0.179342C17.3437 -0.180787 15.4671 0.00404398 13.7616 0.710462C12.0562 1.41688 10.5985 2.61316 9.57295 4.14802C8.54739 5.68288 8 7.48738 8 9.33334C8.00282 11.8078 8.98706 14.1802 10.7368 15.9299C12.4865 17.6796 14.8588 18.6639 17.3333 18.6667ZM17.3333 2.66667C18.6519 2.66667 19.9408 3.05766 21.0371 3.79021C22.1335 4.52275 22.9879 5.56394 23.4925 6.78212C23.9971 8.00029 24.1291 9.34074 23.8719 10.6339C23.6147 11.9271 22.9797 13.115 22.0474 14.0474C21.115 14.9797 19.9271 15.6147 18.6339 15.8719C17.3407 16.1291 16.0003 15.9971 14.7821 15.4925C13.5639 14.988 12.5227 14.1335 11.7902 13.0371C11.0577 11.9408 10.6667 10.6519 10.6667 9.33334C10.6688 7.56588 11.3718 5.87142 12.6216 4.62163C13.8714 3.37185 15.5659 2.66879 17.3333 2.66667Z" fill="#6A7194"/>
<path d="M17.3333 21.3334C12.7379 21.3387 8.33215 23.1666 5.08266 26.416C1.83318 29.6655 0.0052933 34.0712 0 38.6667C0 39.0203 0.140476 39.3595 0.390524 39.6095C0.640573 39.8596 0.979711 40 1.33333 40H33.3333C33.687 40 34.0261 39.8596 34.2761 39.6095C34.5262 39.3595 34.6667 39.0203 34.6667 38.6667C34.6614 34.0712 32.8335 29.6655 29.584 26.416C26.3345 23.1666 21.9288 21.3387 17.3333 21.3334ZM2.72667 37.3334C3.05743 33.6879 4.73937 30.2979 7.44209 27.8293C10.1448 25.3607 13.6729 23.992 17.3333 23.992C20.9937 23.992 24.5219 25.3607 27.2246 27.8293C29.9273 30.2979 31.6092 33.6879 31.94 37.3334H2.72667Z" fill="#6A7194"/>
<path d="M38.667 17.3333H34.667V13.3333C34.667 12.9797 34.5265 12.6406 34.2765 12.3905C34.0264 12.1405 33.6873 12 33.3337 12C32.98 12 32.6409 12.1405 32.3909 12.3905C32.1408 12.6406 32.0003 12.9797 32.0003 13.3333V17.3333H28.0003C27.6467 17.3333 27.3076 17.4738 27.0575 17.7239C26.8075 17.9739 26.667 18.313 26.667 18.6667C26.667 19.0203 26.8075 19.3594 27.0575 19.6095C27.3076 19.8595 27.6467 20 28.0003 20H32.0003V24C32.0003 24.3536 32.1408 24.6928 32.3909 24.9428C32.6409 25.1929 32.98 25.3333 33.3337 25.3333C33.6873 25.3333 34.0264 25.1929 34.2765 24.9428C34.5265 24.6928 34.667 24.3536 34.667 24V20H38.667C39.0206 20 39.3598 19.8595 39.6098 19.6095C39.8599 19.3594 40.0003 19.0203 40.0003 18.6667C40.0003 18.313 39.8599 17.9739 39.6098 17.7239C39.3598 17.4738 39.0206 17.3333 38.667 17.3333Z" fill="#6A7194"/>
</svg>
