<svg width="463" height="459" viewBox="0 0 463 459" fill="none" xmlns="http://www.w3.org/2000/svg">
<path d="M219.333 235.334C284.135 235.334 336.667 182.802 336.667 118C336.667 53.1989 284.135 0.666992 219.333 0.666992C154.532 0.666992 102 53.1989 102 118C102 182.802 154.532 235.334 219.333 235.334Z" fill="#444139"/>
<path fill-rule="evenodd" clip-rule="evenodd" d="M249.861 438.256C227.61 414.448 213.999 382.469 213.999 347.333C213.999 311.472 228.186 278.917 251.226 254.939C240.837 254.149 230.17 253.723 219.333 253.723C148.463 253.723 85.722 271.451 46.7674 298.011C17.05 318.277 0.666016 344.027 0.666016 371.056V402.011C0.666016 411.611 4.48468 420.848 11.29 427.653C18.0954 434.437 27.3114 438.277 36.9327 438.277L249.861 438.256Z" fill="#444139"/>
<path d="M348.5 230C325.854 230 303.717 236.715 284.887 249.297C266.058 261.878 251.382 279.761 242.716 300.683C234.05 321.605 231.782 344.627 236.2 366.838C240.618 389.049 251.523 409.451 267.536 425.464C283.549 441.477 303.951 452.382 326.162 456.8C348.373 461.218 371.395 458.95 392.317 450.284C413.239 441.618 431.122 426.942 443.703 408.113C456.285 389.283 463 367.146 463 344.5C462.964 314.144 450.89 285.041 429.424 263.576C407.959 242.11 378.856 230.036 348.5 230ZM399.688 386.259C398.434 387.932 396.806 389.29 394.936 390.225C393.066 391.16 391.003 391.647 388.912 391.647C385.997 391.647 383.161 390.702 380.829 388.953L340.418 355.276C338.745 354.022 337.387 352.395 336.452 350.524C335.516 348.654 335.029 346.591 335.029 344.5V283.882C335.029 280.31 336.449 276.883 338.975 274.357C341.501 271.831 344.927 270.412 348.5 270.412C352.073 270.412 355.499 271.831 358.025 274.357C360.551 276.883 361.971 280.31 361.971 283.882V337.765L396.994 367.4C398.409 368.461 399.602 369.791 400.503 371.313C401.404 372.835 401.997 374.52 402.247 376.271C402.497 378.023 402.4 379.806 401.961 381.52C401.522 383.233 400.75 384.844 399.688 386.259Z" fill="#444139"/>
</svg>
