<svg width="15" height="15" viewBox="0 0 15 15" fill="none" xmlns="http://www.w3.org/2000/svg">
<path d="M9.00341 7.49999C10.9364 7.49999 12.5034 5.93299 12.5034 4C12.5034 2.067 10.9364 0.5 9.00341 0.5C7.07042 0.5 5.50342 2.067 5.50342 4C5.50342 5.93299 7.07042 7.49999 9.00341 7.49999Z" fill="#0B1F50"/>
<path d="M10.7537 8.66663H7.25374C6.17115 8.66786 5.13326 9.09846 4.36775 9.86397C3.60225 10.6295 3.17165 11.6674 3.17041 12.75V13.9166C3.17041 14.0713 3.23187 14.2197 3.34126 14.3291C3.45066 14.4385 3.59903 14.5 3.75374 14.5H14.2537C14.4084 14.5 14.5568 14.4385 14.6662 14.3291C14.7756 14.2197 14.8371 14.0713 14.8371 13.9166V12.75C14.8358 11.6674 14.4052 10.6295 13.6397 9.86397C12.8742 9.09846 11.8363 8.66786 10.7537 8.66663Z" fill="#0B1F50"/>
<path d="M3.17024 4.58337C3.01554 4.58337 2.86716 4.64483 2.75777 4.75423C2.64837 4.86362 2.58691 5.012 2.58691 5.16671V6.33337H1.42025C1.26554 6.33337 1.11716 6.39483 1.00777 6.50423C0.898372 6.61362 0.836914 6.762 0.836914 6.9167C0.836914 7.07141 0.898372 7.21979 1.00777 7.32918C1.11716 7.43858 1.26554 7.50004 1.42025 7.50004H2.58691V8.6667C2.58691 8.82141 2.64837 8.96978 2.75777 9.07918C2.86716 9.18858 3.01554 9.25003 3.17024 9.25003C3.32495 9.25003 3.47333 9.18858 3.58272 9.07918C3.69212 8.96978 3.75358 8.82141 3.75358 8.6667V7.50004H4.92024C5.07495 7.50004 5.22332 7.43858 5.33272 7.32918C5.44212 7.21979 5.50357 7.07141 5.50357 6.9167C5.50357 6.762 5.44212 6.61362 5.33272 6.50423C5.22332 6.39483 5.07495 6.33337 4.92024 6.33337H3.75358V5.16671C3.75358 5.012 3.69212 4.86362 3.58272 4.75423C3.47333 4.64483 3.32495 4.58337 3.17024 4.58337Z" fill="#0B1F50"/>
</svg>
